G75*
%MOIN*%
%OFA0B0*%
%FSLAX24Y24*%
%IPPOS*%
%LPD*%
%AMOC8*
5,1,8,0,0,1.08239X$1,22.5*
%
%ADD10C,0.0160*%
%ADD11R,0.0670X0.0827*%
%ADD12R,0.0670X0.0749*%
%ADD13C,0.0780*%
%ADD14C,0.1306*%
%ADD15C,0.0473*%
%ADD16R,0.0906X0.0276*%
%ADD17R,0.0749X0.0670*%
%ADD18R,0.0300X0.0840*%
%ADD19R,0.2402X0.0827*%
%ADD20R,0.1418X0.0827*%
%ADD21R,0.0520X0.0200*%
%ADD22R,0.0434X0.1300*%
%ADD23C,0.0709*%
%ADD24R,0.0290X0.0540*%
D10*
X013023Y003300D02*
X013273Y003300D01*
X013273Y004300D02*
X013023Y004300D01*
D11*
X017097Y001300D03*
X018199Y001300D03*
D12*
X014699Y001300D03*
X013597Y001300D03*
X011199Y006300D03*
X010097Y006300D03*
X017097Y006300D03*
X018199Y006300D03*
D13*
X015648Y006400D03*
X014648Y006400D03*
X013648Y006400D03*
X012648Y006400D03*
X008093Y005178D03*
X008093Y004244D03*
X008093Y003356D03*
X008093Y002422D03*
D14*
X007148Y001517D03*
X007148Y006083D03*
D15*
X007109Y004686D03*
X007109Y002914D03*
D16*
X009624Y003050D03*
X009624Y003550D03*
X009624Y004050D03*
X009624Y004550D03*
X011671Y004550D03*
X011671Y004050D03*
X011671Y003550D03*
X011671Y003050D03*
D17*
X019648Y003249D03*
X019648Y004351D03*
D18*
X015898Y005010D03*
X015398Y005010D03*
X014898Y005010D03*
X014398Y005010D03*
X014398Y002590D03*
X014898Y002590D03*
X015398Y002590D03*
X015898Y002590D03*
D19*
X024973Y002225D03*
X024973Y003800D03*
X024973Y005375D03*
D20*
X021331Y005375D03*
X021331Y003800D03*
X021331Y002225D03*
D21*
X018303Y003300D03*
X016993Y003300D03*
X016993Y003800D03*
X018303Y003800D03*
X018303Y004300D03*
X016993Y004300D03*
D22*
X011238Y001550D03*
X010057Y001550D03*
D23*
X024484Y002422D03*
X024484Y003800D03*
X024484Y005178D03*
D24*
X013348Y004300D03*
X012948Y004300D03*
X012948Y003300D03*
X013348Y003300D03*
M02*
