G75*
%MOIN*%
%OFA0B0*%
%FSLAX24Y24*%
%IPPOS*%
%LPD*%
%AMOC8*
5,1,8,0,0,1.08239X$1,22.5*
%
%ADD10C,0.0000*%
%ADD11C,0.0080*%
%ADD12C,0.0050*%
%ADD13R,0.0011X0.0133*%
%ADD14R,0.0011X0.0278*%
%ADD15R,0.0011X0.0378*%
%ADD16R,0.0011X0.0444*%
%ADD17R,0.0011X0.0544*%
%ADD18R,0.0011X0.0644*%
%ADD19R,0.0011X0.0744*%
%ADD20R,0.0011X0.0855*%
%ADD21R,0.0011X0.0911*%
%ADD22R,0.0011X0.1011*%
%ADD23R,0.0011X0.1100*%
%ADD24R,0.0011X0.1211*%
%ADD25R,0.0011X0.1278*%
%ADD26R,0.0011X0.1378*%
%ADD27R,0.0011X0.1478*%
%ADD28R,0.0011X0.1311*%
%ADD29R,0.0011X0.0156*%
%ADD30R,0.0011X0.1245*%
%ADD31R,0.0011X0.1189*%
%ADD32R,0.0011X0.1000*%
%ADD33R,0.0011X0.0167*%
%ADD34R,0.0011X0.0856*%
%ADD35R,0.0011X0.0745*%
%ADD36R,0.0011X0.0167*%
%ADD37R,0.0011X0.0645*%
%ADD38R,0.0011X0.0545*%
%ADD39R,0.0011X0.0445*%
%ADD40R,0.0011X0.0389*%
%ADD41R,0.0011X0.0289*%
%ADD42R,0.0011X0.0178*%
%ADD43R,0.0011X0.0167*%
%ADD44R,0.0011X0.0156*%
%ADD45R,0.0011X0.0167*%
%ADD46R,0.0011X0.0156*%
%ADD47R,0.0011X0.0011*%
%ADD48R,0.0011X0.0156*%
%ADD49R,0.0011X0.0256*%
%ADD50R,0.0011X0.0344*%
%ADD51R,0.0011X0.0456*%
%ADD52R,0.0011X0.0489*%
%ADD53R,0.0011X0.0544*%
%ADD54R,0.0011X0.0245*%
%ADD55R,0.0011X0.0211*%
%ADD56R,0.0011X0.0200*%
%ADD57R,0.0011X0.0189*%
%ADD58R,0.0011X0.0155*%
%ADD59R,0.0011X0.0145*%
%ADD60R,0.0011X0.0144*%
%ADD61R,0.0011X0.0134*%
%ADD62R,0.0011X0.0122*%
%ADD63R,0.0011X0.0111*%
%ADD64R,0.0011X0.0112*%
%ADD65R,0.0011X0.0100*%
%ADD66R,0.0011X0.0089*%
%ADD67R,0.0011X0.0089*%
%ADD68R,0.0011X0.0155*%
%ADD69R,0.0011X0.0100*%
%ADD70R,0.0011X0.0089*%
%ADD71R,0.0011X0.0166*%
%ADD72R,0.0011X0.0077*%
%ADD73R,0.0011X0.0088*%
%ADD74R,0.0011X0.0078*%
%ADD75R,0.0011X0.0078*%
%ADD76R,0.0011X0.0166*%
%ADD77R,0.0011X0.0066*%
%ADD78R,0.0011X0.0044*%
%ADD79R,0.0011X0.0066*%
%ADD80R,0.0011X0.0166*%
%ADD81R,0.0011X0.0077*%
%ADD82R,0.0011X0.0144*%
%ADD83R,0.0011X0.0033*%
%ADD84R,0.0011X0.0055*%
%ADD85R,0.0011X0.0067*%
%ADD86R,0.0011X0.0177*%
%ADD87R,0.0011X0.0178*%
%ADD88R,0.0011X0.0345*%
%ADD89R,0.0011X0.0122*%
%ADD90R,0.0011X0.0145*%
%ADD91R,0.0011X0.0356*%
%ADD92R,0.0011X0.0367*%
%ADD93R,0.0011X0.0233*%
%ADD94R,0.0011X0.0067*%
%ADD95R,0.0011X0.0034*%
%ADD96R,0.0011X0.0323*%
%ADD97R,0.0011X0.0311*%
%ADD98R,0.0011X0.0300*%
%ADD99R,0.0011X0.0289*%
%ADD100R,0.0011X0.0022*%
%ADD101R,0.0011X0.0267*%
%ADD102R,0.0011X0.0256*%
%ADD103R,0.0011X0.0256*%
%ADD104R,0.0011X0.0033*%
%ADD105R,0.0011X0.0255*%
%ADD106R,0.0011X0.0255*%
%ADD107R,0.0011X0.0133*%
%ADD108R,0.0011X0.0355*%
%ADD109R,0.0011X0.0367*%
%ADD110R,0.0011X0.0367*%
%ADD111R,0.0011X0.0377*%
%ADD112R,0.0011X0.0388*%
%ADD113R,0.0011X0.0378*%
%ADD114R,0.0011X0.0378*%
%ADD115R,0.0011X0.0256*%
%ADD116R,0.0011X0.0366*%
%ADD117R,0.0011X0.0266*%
%ADD118R,0.0011X0.0377*%
%ADD119R,0.0011X0.0244*%
%ADD120R,0.0011X0.0389*%
%ADD121R,0.0011X0.0611*%
%ADD122R,0.0011X0.0578*%
%ADD123R,0.0011X0.0511*%
%ADD124R,0.0011X0.0466*%
%ADD125R,0.0011X0.0422*%
%ADD126R,0.0011X0.0244*%
%ADD127R,0.0011X0.0178*%
%ADD128R,0.0007X0.1419*%
%ADD129R,0.0007X0.1472*%
%ADD130R,0.0007X0.1525*%
%ADD131R,0.0007X0.1538*%
%ADD132R,0.0007X0.1564*%
%ADD133R,0.0007X0.1577*%
%ADD134R,0.0007X0.1604*%
%ADD135R,0.0007X0.1617*%
%ADD136R,0.0007X0.1624*%
%ADD137R,0.0007X0.1630*%
%ADD138R,0.0007X0.1643*%
%ADD139R,0.0007X0.1657*%
%ADD140R,0.0007X0.1657*%
%ADD141R,0.0007X0.1670*%
%ADD142R,0.0007X0.1683*%
%ADD143R,0.0007X0.1683*%
%ADD144R,0.0007X0.1696*%
%ADD145R,0.0007X0.1696*%
%ADD146R,0.0007X0.1709*%
%ADD147R,0.0007X0.1709*%
%ADD148R,0.0007X0.0376*%
%ADD149R,0.0007X0.1221*%
%ADD150R,0.0007X0.0337*%
%ADD151R,0.0007X0.1181*%
%ADD152R,0.0007X0.0317*%
%ADD153R,0.0007X0.0548*%
%ADD154R,0.0007X0.0323*%
%ADD155R,0.0007X0.0297*%
%ADD156R,0.0007X0.0528*%
%ADD157R,0.0007X0.0323*%
%ADD158R,0.0007X0.0277*%
%ADD159R,0.0007X0.0508*%
%ADD160R,0.0007X0.0264*%
%ADD161R,0.0007X0.0495*%
%ADD162R,0.0007X0.0251*%
%ADD163R,0.0007X0.0475*%
%ADD164R,0.0007X0.0317*%
%ADD165R,0.0007X0.0238*%
%ADD166R,0.0007X0.0462*%
%ADD167R,0.0007X0.0224*%
%ADD168R,0.0007X0.0449*%
%ADD169R,0.0007X0.0218*%
%ADD170R,0.0007X0.0436*%
%ADD171R,0.0007X0.0310*%
%ADD172R,0.0007X0.0205*%
%ADD173R,0.0007X0.0422*%
%ADD174R,0.0007X0.0310*%
%ADD175R,0.0007X0.0198*%
%ADD176R,0.0007X0.0416*%
%ADD177R,0.0007X0.0191*%
%ADD178R,0.0007X0.0403*%
%ADD179R,0.0007X0.0304*%
%ADD180R,0.0007X0.0185*%
%ADD181R,0.0007X0.0396*%
%ADD182R,0.0007X0.0304*%
%ADD183R,0.0007X0.0178*%
%ADD184R,0.0007X0.0389*%
%ADD185R,0.0007X0.0172*%
%ADD186R,0.0007X0.0376*%
%ADD187R,0.0007X0.0165*%
%ADD188R,0.0007X0.0370*%
%ADD189R,0.0007X0.0297*%
%ADD190R,0.0007X0.0158*%
%ADD191R,0.0007X0.0363*%
%ADD192R,0.0007X0.0152*%
%ADD193R,0.0007X0.0350*%
%ADD194R,0.0007X0.0290*%
%ADD195R,0.0007X0.0145*%
%ADD196R,0.0007X0.0343*%
%ADD197R,0.0007X0.0139*%
%ADD198R,0.0007X0.0290*%
%ADD199R,0.0007X0.0132*%
%ADD200R,0.0007X0.0330*%
%ADD201R,0.0007X0.0284*%
%ADD202R,0.0007X0.0125*%
%ADD203R,0.0007X0.0317*%
%ADD204R,0.0007X0.0284*%
%ADD205R,0.0007X0.0125*%
%ADD206R,0.0007X0.0119*%
%ADD207R,0.0007X0.0304*%
%ADD208R,0.0007X0.0112*%
%ADD209R,0.0007X0.0304*%
%ADD210R,0.0007X0.0277*%
%ADD211R,0.0007X0.0112*%
%ADD212R,0.0007X0.0106*%
%ADD213R,0.0007X0.0271*%
%ADD214R,0.0007X0.0106*%
%ADD215R,0.0007X0.0271*%
%ADD216R,0.0007X0.0066*%
%ADD217R,0.0007X0.0277*%
%ADD218R,0.0007X0.0099*%
%ADD219R,0.0007X0.0277*%
%ADD220R,0.0007X0.0264*%
%ADD221R,0.0007X0.0099*%
%ADD222R,0.0007X0.0125*%
%ADD223R,0.0007X0.0264*%
%ADD224R,0.0007X0.0092*%
%ADD225R,0.0007X0.0139*%
%ADD226R,0.0007X0.0092*%
%ADD227R,0.0007X0.0152*%
%ADD228R,0.0007X0.0264*%
%ADD229R,0.0007X0.0257*%
%ADD230R,0.0007X0.0257*%
%ADD231R,0.0007X0.0086*%
%ADD232R,0.0007X0.0086*%
%ADD233R,0.0007X0.0185*%
%ADD234R,0.0007X0.0251*%
%ADD235R,0.0007X0.0191*%
%ADD236R,0.0007X0.0251*%
%ADD237R,0.0007X0.0079*%
%ADD238R,0.0007X0.0205*%
%ADD239R,0.0007X0.0238*%
%ADD240R,0.0007X0.0079*%
%ADD241R,0.0007X0.0244*%
%ADD242R,0.0007X0.0218*%
%ADD243R,0.0007X0.0244*%
%ADD244R,0.0007X0.0218*%
%ADD245R,0.0007X0.0231*%
%ADD246R,0.0007X0.0224*%
%ADD247R,0.0007X0.0231*%
%ADD248R,0.0007X0.0224*%
%ADD249R,0.0007X0.0528*%
%ADD250R,0.0007X0.0528*%
%ADD251R,0.0007X0.0224*%
%ADD252R,0.0007X0.0218*%
%ADD253R,0.0007X0.0521*%
%ADD254R,0.0007X0.0211*%
%ADD255R,0.0007X0.0007*%
%ADD256R,0.0007X0.0521*%
%ADD257R,0.0007X0.0211*%
%ADD258R,0.0007X0.0007*%
%ADD259R,0.0007X0.0515*%
%ADD260R,0.0007X0.0020*%
%ADD261R,0.0007X0.0191*%
%ADD262R,0.0007X0.0020*%
%ADD263R,0.0007X0.0026*%
%ADD264R,0.0007X0.0145*%
%ADD265R,0.0007X0.0033*%
%ADD266R,0.0007X0.0033*%
%ADD267R,0.0007X0.0119*%
%ADD268R,0.0007X0.0046*%
%ADD269R,0.0007X0.0059*%
%ADD270R,0.0007X0.0046*%
%ADD271R,0.0007X0.0198*%
%ADD272R,0.0007X0.0205*%
%ADD273R,0.0007X0.0205*%
%ADD274R,0.0007X0.0059*%
%ADD275R,0.0007X0.0198*%
%ADD276R,0.0007X0.0059*%
%ADD277R,0.0007X0.0073*%
%ADD278R,0.0007X0.0211*%
%ADD279R,0.0007X0.0211*%
%ADD280R,0.0007X0.0073*%
%ADD281R,0.0007X0.0178*%
%ADD282R,0.0007X0.0178*%
%ADD283R,0.0007X0.0099*%
%ADD284R,0.0007X0.0172*%
%ADD285R,0.0007X0.0231*%
%ADD286R,0.0007X0.0099*%
%ADD287R,0.0007X0.0106*%
%ADD288R,0.0007X0.0132*%
%ADD289R,0.0007X0.0165*%
%ADD290R,0.0007X0.0158*%
%ADD291R,0.0007X0.0158*%
%ADD292R,0.0007X0.0013*%
%ADD293R,0.0007X0.0139*%
%ADD294R,0.0007X0.0284*%
%ADD295R,0.0007X0.0026*%
%ADD296R,0.0007X0.0139*%
%ADD297R,0.0007X0.0152*%
%ADD298R,0.0007X0.0040*%
%ADD299R,0.0007X0.0317*%
%ADD300R,0.0007X0.0337*%
%ADD301R,0.0007X0.0561*%
%ADD302R,0.0007X0.0561*%
%ADD303R,0.0007X0.0554*%
%ADD304R,0.0007X0.0172*%
%ADD305R,0.0007X0.0554*%
%ADD306R,0.0007X0.0548*%
%ADD307R,0.0007X0.0125*%
%ADD308R,0.0007X0.0541*%
%ADD309R,0.0007X0.0191*%
%ADD310R,0.0007X0.0541*%
%ADD311R,0.0007X0.0119*%
%ADD312R,0.0007X0.0535*%
%ADD313R,0.0007X0.0119*%
%ADD314R,0.0007X0.0106*%
%ADD315R,0.0007X0.0152*%
%ADD316R,0.0007X0.0231*%
%ADD317R,0.0007X0.0244*%
%ADD318R,0.0007X0.0244*%
%ADD319R,0.0007X0.0086*%
%ADD320R,0.0007X0.0086*%
%ADD321R,0.0007X0.0271*%
%ADD322R,0.0007X0.0271*%
%ADD323R,0.0007X0.0066*%
%ADD324R,0.0007X0.0066*%
%ADD325R,0.0007X0.0158*%
%ADD326R,0.0007X0.0059*%
%ADD327R,0.0007X0.0079*%
%ADD328R,0.0007X0.0053*%
%ADD329R,0.0007X0.0079*%
%ADD330R,0.0007X0.0053*%
%ADD331R,0.0007X0.0541*%
%ADD332R,0.0007X0.0026*%
%ADD333R,0.0007X0.0073*%
%ADD334R,0.0007X0.0046*%
%ADD335R,0.0007X0.0040*%
%ADD336R,0.0007X0.0026*%
%ADD337R,0.0007X0.0066*%
%ADD338R,0.0007X0.0033*%
%ADD339R,0.0007X0.0053*%
%ADD340R,0.0007X0.0073*%
%ADD341R,0.0007X0.0053*%
%ADD342R,0.0007X0.0033*%
%ADD343R,0.0007X0.0350*%
%ADD344R,0.0007X0.1643*%
%ADD345R,0.0007X0.1617*%
%ADD346R,0.0007X0.1591*%
%ADD347R,0.0007X0.1558*%
%ADD348R,0.0007X0.1406*%
D10*
X006148Y000500D02*
X006148Y007100D01*
X026898Y007100D01*
X026898Y000500D01*
X006148Y000500D01*
X006892Y002914D02*
X006894Y002943D01*
X006900Y002971D01*
X006909Y002999D01*
X006922Y003025D01*
X006939Y003048D01*
X006958Y003070D01*
X006980Y003089D01*
X007005Y003104D01*
X007031Y003117D01*
X007059Y003125D01*
X007087Y003130D01*
X007116Y003131D01*
X007145Y003128D01*
X007173Y003121D01*
X007200Y003111D01*
X007226Y003097D01*
X007249Y003080D01*
X007270Y003060D01*
X007288Y003037D01*
X007303Y003012D01*
X007314Y002985D01*
X007322Y002957D01*
X007326Y002928D01*
X007326Y002900D01*
X007322Y002871D01*
X007314Y002843D01*
X007303Y002816D01*
X007288Y002791D01*
X007270Y002768D01*
X007249Y002748D01*
X007226Y002731D01*
X007200Y002717D01*
X007173Y002707D01*
X007145Y002700D01*
X007116Y002697D01*
X007087Y002698D01*
X007059Y002703D01*
X007031Y002711D01*
X007005Y002724D01*
X006980Y002739D01*
X006958Y002758D01*
X006939Y002780D01*
X006922Y002803D01*
X006909Y002829D01*
X006900Y002857D01*
X006894Y002885D01*
X006892Y002914D01*
X006892Y004686D02*
X006894Y004715D01*
X006900Y004743D01*
X006909Y004771D01*
X006922Y004797D01*
X006939Y004820D01*
X006958Y004842D01*
X006980Y004861D01*
X007005Y004876D01*
X007031Y004889D01*
X007059Y004897D01*
X007087Y004902D01*
X007116Y004903D01*
X007145Y004900D01*
X007173Y004893D01*
X007200Y004883D01*
X007226Y004869D01*
X007249Y004852D01*
X007270Y004832D01*
X007288Y004809D01*
X007303Y004784D01*
X007314Y004757D01*
X007322Y004729D01*
X007326Y004700D01*
X007326Y004672D01*
X007322Y004643D01*
X007314Y004615D01*
X007303Y004588D01*
X007288Y004563D01*
X007270Y004540D01*
X007249Y004520D01*
X007226Y004503D01*
X007200Y004489D01*
X007173Y004479D01*
X007145Y004472D01*
X007116Y004469D01*
X007087Y004470D01*
X007059Y004475D01*
X007031Y004483D01*
X007005Y004496D01*
X006980Y004511D01*
X006958Y004530D01*
X006939Y004552D01*
X006922Y004575D01*
X006909Y004601D01*
X006900Y004629D01*
X006894Y004657D01*
X006892Y004686D01*
D11*
X025563Y004738D02*
X025563Y005019D01*
X025773Y004879D02*
X025773Y004738D01*
X025983Y004738D02*
X025563Y004738D01*
X025983Y004738D02*
X025983Y005019D01*
X025913Y004558D02*
X025773Y004558D01*
X025703Y004488D01*
X025703Y004278D01*
X025563Y004278D02*
X025983Y004278D01*
X025983Y004488D01*
X025913Y004558D01*
X025703Y004418D02*
X025563Y004558D01*
X025563Y004111D02*
X025563Y003971D01*
X025563Y004041D02*
X025983Y004041D01*
X025983Y003971D02*
X025983Y004111D01*
X025983Y003791D02*
X025563Y003791D01*
X025703Y003651D01*
X025563Y003511D01*
X025983Y003511D01*
X025773Y003331D02*
X025773Y003050D01*
X025563Y002870D02*
X025563Y002590D01*
X025563Y002730D02*
X025983Y002730D01*
X025843Y002590D01*
D12*
X015768Y004975D02*
X015588Y004975D01*
X015498Y005065D01*
X015588Y005155D01*
X015768Y005155D01*
X015768Y005270D02*
X015498Y005270D01*
X015498Y005405D01*
X015543Y005450D01*
X015723Y005450D01*
X015768Y005405D01*
X015768Y005270D01*
X015768Y005564D02*
X015498Y005564D01*
X015498Y005699D01*
X015543Y005744D01*
X015723Y005744D01*
X015768Y005699D01*
X015768Y005564D01*
X014768Y005564D02*
X014768Y005699D01*
X014723Y005744D01*
X014543Y005744D01*
X014498Y005699D01*
X014498Y005564D01*
X014768Y005564D01*
X014768Y005450D02*
X014498Y005450D01*
X014768Y005270D01*
X014498Y005270D01*
X014543Y005155D02*
X014633Y005155D01*
X014633Y005065D01*
X014723Y004975D02*
X014768Y005020D01*
X014768Y005110D01*
X014723Y005155D01*
X014543Y005155D02*
X014498Y005110D01*
X014498Y005020D01*
X014543Y004975D01*
X014723Y004975D01*
X013768Y004975D02*
X013768Y005155D01*
X013768Y005065D02*
X013498Y005065D01*
X012768Y005110D02*
X012768Y004975D01*
X012498Y004975D01*
X012588Y004975D02*
X012588Y005110D01*
X012633Y005155D01*
X012723Y005155D01*
X012768Y005110D01*
X012588Y005065D02*
X012498Y005155D01*
X012498Y005270D02*
X012768Y005450D01*
X012768Y005270D02*
X012498Y005450D01*
X012498Y005564D02*
X012498Y005699D01*
X012543Y005744D01*
X012723Y005744D01*
X012768Y005699D01*
X012768Y005564D01*
X012498Y005564D01*
X013498Y005564D02*
X013498Y005699D01*
X013543Y005744D01*
X013723Y005744D01*
X013768Y005699D01*
X013768Y005564D01*
X013498Y005564D01*
X013498Y005450D02*
X013768Y005270D01*
X013768Y005450D02*
X013498Y005270D01*
X016298Y006245D02*
X016343Y006200D01*
X016298Y006245D02*
X016298Y006290D01*
X016343Y006335D01*
X016568Y006335D01*
X016568Y006290D02*
X016568Y006380D01*
X016478Y006495D02*
X016568Y006585D01*
X016298Y006585D01*
X016298Y006495D02*
X016298Y006675D01*
D13*
X021578Y002884D03*
X023512Y002384D03*
X022145Y001984D03*
X022156Y001973D03*
D14*
X021590Y002833D03*
D15*
X021601Y002783D03*
X023312Y002072D03*
X023290Y002028D03*
X023267Y001983D03*
X023167Y001772D03*
X023145Y001717D03*
X023101Y001628D03*
X023078Y001572D03*
D16*
X021612Y002761D03*
D17*
X021623Y002711D03*
D18*
X021634Y002661D03*
D19*
X021645Y002611D03*
D20*
X021656Y002566D03*
D21*
X021667Y002538D03*
X021801Y001816D03*
D22*
X021678Y002488D03*
D23*
X021690Y002444D03*
X021778Y001922D03*
D24*
X021701Y002388D03*
D25*
X021712Y002367D03*
D26*
X021723Y002317D03*
D27*
X021734Y002267D03*
D28*
X021745Y002083D03*
D29*
X022534Y001528D03*
X022545Y001528D03*
X022556Y001528D03*
X022567Y001528D03*
X022578Y001528D03*
X022634Y001539D03*
X022645Y001539D03*
X022656Y001539D03*
X022667Y001539D03*
X022678Y001539D03*
X022845Y001561D03*
X022934Y001572D03*
X022112Y001472D03*
X022101Y001472D03*
X022090Y001472D03*
X022078Y001472D03*
X022067Y001472D03*
X021890Y002939D03*
X021878Y002939D03*
X021867Y002939D03*
X021856Y002939D03*
X021845Y002939D03*
X021834Y002939D03*
X021790Y002928D03*
X021778Y002928D03*
X021767Y002928D03*
X021756Y002928D03*
X021745Y002928D03*
X022034Y002961D03*
X022045Y002961D03*
X022078Y002972D03*
X022090Y002972D03*
X022101Y002972D03*
X022112Y002972D03*
X022134Y002972D03*
X022534Y003028D03*
X022545Y003028D03*
X022556Y003028D03*
X022567Y003028D03*
X022578Y003028D03*
X022634Y003039D03*
X022645Y003039D03*
X022656Y003039D03*
X022667Y003039D03*
X022678Y003039D03*
D30*
X021756Y002016D03*
D31*
X021767Y001978D03*
D32*
X021790Y001872D03*
D33*
X022501Y001523D03*
X022512Y001523D03*
X022590Y001534D03*
X022601Y001534D03*
X022612Y001534D03*
X022856Y001566D03*
X022867Y001566D03*
X022878Y001566D03*
X022890Y001566D03*
X022901Y001566D03*
X022912Y001566D03*
X022945Y001578D03*
X022167Y001478D03*
X022156Y001478D03*
X022145Y001478D03*
X022134Y001478D03*
X022056Y001466D03*
X022045Y001466D03*
X022034Y001466D03*
X021812Y002934D03*
X021801Y002934D03*
X022056Y002966D03*
X022067Y002966D03*
X022145Y002978D03*
X022156Y002978D03*
X022167Y002978D03*
X022490Y003023D03*
X022501Y003023D03*
X022512Y003023D03*
X022590Y003034D03*
X022601Y003034D03*
X022612Y003034D03*
X022734Y003223D03*
D34*
X021812Y001789D03*
D35*
X021823Y001734D03*
D36*
X022523Y001523D03*
X022623Y001534D03*
X022923Y001566D03*
X021823Y002934D03*
D37*
X021834Y001684D03*
D38*
X021845Y001634D03*
D39*
X021856Y001584D03*
D40*
X021867Y001555D03*
X023190Y001811D03*
X023245Y001933D03*
X023278Y002011D03*
X023345Y002144D03*
X023434Y002344D03*
X022045Y002288D03*
D41*
X023467Y002361D03*
X021878Y001505D03*
D42*
X021890Y001450D03*
X022112Y002050D03*
X022745Y002539D03*
X022734Y002561D03*
D43*
X022012Y002955D03*
X022001Y002955D03*
X021912Y002944D03*
X021901Y002944D03*
X022690Y003044D03*
X022701Y003044D03*
X022801Y001555D03*
X022812Y001555D03*
X022834Y001555D03*
X022712Y001544D03*
X022701Y001544D03*
X022690Y001544D03*
X022012Y001455D03*
X022001Y001455D03*
X021990Y001455D03*
X021978Y001455D03*
X021912Y001444D03*
X021901Y001444D03*
D44*
X021923Y001450D03*
X022723Y003050D03*
D45*
X022023Y002955D03*
X021923Y002944D03*
X022723Y001544D03*
X022823Y001555D03*
D46*
X022790Y001550D03*
X022778Y001550D03*
X022767Y001550D03*
X022756Y001550D03*
X022745Y001550D03*
X022734Y001550D03*
X021967Y001450D03*
X021956Y001450D03*
X021945Y001450D03*
X021934Y001450D03*
X021934Y002950D03*
X021945Y002950D03*
X021956Y002950D03*
X021967Y002950D03*
X021978Y002950D03*
X021990Y002950D03*
X022712Y003050D03*
X022734Y003050D03*
D47*
X022012Y002288D03*
D48*
X022123Y002028D03*
X022123Y001472D03*
X022023Y001461D03*
X022123Y002972D03*
X022523Y003028D03*
X022623Y003039D03*
X022723Y003228D03*
D49*
X023023Y002922D03*
X023223Y002678D03*
X022023Y002289D03*
D50*
X022034Y002289D03*
X022956Y001489D03*
X022967Y001489D03*
D51*
X022056Y002289D03*
D52*
X022067Y002283D03*
D53*
X022078Y002278D03*
X023390Y002322D03*
D54*
X022090Y002116D03*
X022956Y003005D03*
X022945Y003016D03*
D55*
X022090Y002455D03*
X023490Y002366D03*
D56*
X022812Y002061D03*
X022778Y002039D03*
X022101Y002072D03*
D57*
X022101Y002488D03*
D58*
X022112Y002516D03*
X022178Y002984D03*
X022190Y002984D03*
X022201Y002984D03*
X022212Y002984D03*
X022234Y002984D03*
X022278Y002995D03*
X022290Y002995D03*
X022301Y002995D03*
X022312Y002995D03*
X022334Y002995D03*
X022367Y003005D03*
X022378Y003005D03*
X022390Y003005D03*
X022401Y003005D03*
X022412Y003005D03*
X022445Y003016D03*
X022456Y003016D03*
X022467Y003016D03*
X022478Y003016D03*
X022767Y002016D03*
X022490Y001516D03*
X022478Y001516D03*
X022378Y001505D03*
X022312Y001495D03*
X022301Y001495D03*
X022290Y001495D03*
X022278Y001495D03*
X022212Y001484D03*
X022201Y001484D03*
X022190Y001484D03*
X022178Y001484D03*
X022945Y001405D03*
D59*
X022123Y002534D03*
D60*
X022134Y002000D03*
D61*
X022134Y002550D03*
D62*
X022145Y002567D03*
X022156Y002578D03*
X022690Y002622D03*
X022767Y002522D03*
X022712Y003233D03*
D63*
X022167Y002594D03*
X022834Y002105D03*
X022190Y001938D03*
X022167Y001961D03*
D64*
X022178Y001950D03*
D65*
X022201Y001922D03*
X022212Y001922D03*
X022234Y001900D03*
X022178Y002600D03*
X022201Y002622D03*
X022701Y003233D03*
D66*
X022290Y002661D03*
X022234Y002638D03*
X022190Y002616D03*
X022778Y002516D03*
X022267Y001883D03*
X022256Y001883D03*
X022245Y001894D03*
D67*
X022290Y001873D03*
X022212Y002628D03*
X022334Y002673D03*
X022678Y002628D03*
D68*
X022423Y003005D03*
X022323Y002995D03*
X022223Y002984D03*
X022823Y002084D03*
X022323Y001495D03*
X022223Y001484D03*
D69*
X022923Y001389D03*
X022223Y001911D03*
X023523Y002389D03*
D70*
X022223Y002638D03*
D71*
X022245Y002989D03*
X022256Y002989D03*
X022267Y002989D03*
X022390Y001511D03*
X022401Y001511D03*
X022412Y001511D03*
X022434Y001511D03*
X022445Y001511D03*
X022456Y001511D03*
X022467Y001511D03*
X022267Y001489D03*
X022256Y001489D03*
X022245Y001489D03*
X022234Y001489D03*
D72*
X022356Y001855D03*
X022367Y001855D03*
X022390Y001855D03*
X022401Y001855D03*
X022412Y001855D03*
X022434Y001855D03*
X022445Y001855D03*
X022456Y001855D03*
X022245Y002644D03*
X022267Y002655D03*
X022278Y002655D03*
D73*
X022256Y002650D03*
D74*
X022301Y002667D03*
X022312Y002667D03*
X022345Y002678D03*
X022745Y001978D03*
X022312Y001867D03*
X022301Y001867D03*
X022278Y001878D03*
X022912Y001378D03*
D75*
X022323Y001867D03*
X022323Y002667D03*
D76*
X022345Y003000D03*
X022356Y003000D03*
X022356Y001500D03*
X022345Y001500D03*
X022334Y001500D03*
X022367Y001500D03*
D77*
X022345Y001861D03*
X022334Y001861D03*
D78*
X022356Y002661D03*
X022678Y003228D03*
D79*
X022378Y001850D03*
D80*
X022423Y001511D03*
D81*
X022423Y001855D03*
D82*
X022701Y002611D03*
X022434Y003011D03*
D83*
X022656Y002644D03*
X022734Y001955D03*
D84*
X022667Y002645D03*
D85*
X022845Y002116D03*
X022690Y003228D03*
D86*
X022712Y002605D03*
D87*
X022723Y002583D03*
D88*
X022745Y003145D03*
X022801Y003145D03*
D89*
X022756Y002000D03*
D90*
X022756Y002534D03*
D91*
X022756Y003150D03*
D92*
X022767Y003155D03*
X022778Y003155D03*
X022790Y003155D03*
X023445Y002344D03*
X023156Y001744D03*
X023067Y001555D03*
D93*
X022801Y002044D03*
X022790Y002044D03*
D94*
X022790Y002505D03*
D95*
X022801Y002500D03*
D96*
X023456Y002355D03*
X022812Y003144D03*
D97*
X022823Y003138D03*
D98*
X022834Y003133D03*
D99*
X022845Y003128D03*
D100*
X022856Y002139D03*
X022890Y001361D03*
D101*
X023178Y002728D03*
X022856Y003116D03*
D102*
X022867Y003111D03*
X022890Y003089D03*
X022901Y003078D03*
X022967Y002989D03*
X022978Y002978D03*
X023034Y002911D03*
X023045Y002889D03*
X023056Y002878D03*
X023101Y002822D03*
X023112Y002811D03*
X023134Y002789D03*
X023145Y002778D03*
X023190Y002711D03*
X023212Y002689D03*
X023267Y002622D03*
X023290Y002589D03*
X023301Y002578D03*
X023345Y002522D03*
X023356Y002511D03*
D103*
X023278Y002600D03*
X023201Y002700D03*
X022878Y003100D03*
D104*
X022901Y001366D03*
D105*
X023334Y002534D03*
X023312Y002566D03*
X023256Y002634D03*
X023245Y002645D03*
X023167Y002745D03*
X023156Y002755D03*
X023090Y002845D03*
X023078Y002855D03*
X023067Y002866D03*
X023012Y002934D03*
X023001Y002945D03*
X022990Y002955D03*
X022934Y003034D03*
X022912Y003055D03*
D106*
X022923Y003045D03*
D107*
X022934Y001394D03*
D108*
X022978Y001484D03*
X022990Y001484D03*
X023001Y001484D03*
D109*
X023012Y001478D03*
X023034Y001478D03*
X023056Y001534D03*
D110*
X023023Y001478D03*
D111*
X023045Y001505D03*
X023134Y001694D03*
X023178Y001794D03*
X023234Y001905D03*
D112*
X023090Y001600D03*
D113*
X023112Y001650D03*
X023201Y001839D03*
X023212Y001861D03*
X023256Y001961D03*
X023301Y002050D03*
D114*
X023123Y001672D03*
D115*
X023123Y002800D03*
D116*
X023223Y001889D03*
D117*
X023234Y002661D03*
D118*
X023323Y002105D03*
D119*
X023323Y002550D03*
D120*
X023356Y002178D03*
X023334Y002123D03*
D121*
X023367Y002311D03*
D122*
X023378Y002317D03*
D123*
X023401Y002328D03*
D124*
X023412Y002339D03*
D125*
X023423Y002339D03*
D126*
X023478Y002361D03*
D127*
X023501Y002372D03*
D128*
X021661Y005277D03*
D129*
X021668Y005277D03*
X023358Y005277D03*
D130*
X023351Y005277D03*
X021675Y005277D03*
D131*
X021681Y005277D03*
X023344Y005277D03*
D132*
X021688Y005277D03*
D133*
X021694Y005277D03*
X023331Y005277D03*
D134*
X021701Y005277D03*
D135*
X021708Y005277D03*
X023318Y005277D03*
D136*
X021714Y005280D03*
D137*
X021721Y005277D03*
X023305Y005277D03*
D138*
X023298Y005277D03*
X021727Y005277D03*
D139*
X021734Y005277D03*
D140*
X021741Y005277D03*
X023285Y005277D03*
D141*
X023278Y005277D03*
X021747Y005277D03*
D142*
X021754Y005277D03*
X021774Y005277D03*
X023259Y005277D03*
X023272Y005277D03*
D143*
X023265Y005277D03*
X023252Y005277D03*
X021767Y005277D03*
X021760Y005277D03*
D144*
X021780Y005277D03*
X021793Y005277D03*
X021800Y005277D03*
X023232Y005277D03*
X023245Y005277D03*
D145*
X023239Y005277D03*
X021787Y005277D03*
D146*
X021807Y005277D03*
X021826Y005277D03*
X022744Y005277D03*
X022764Y005277D03*
X022777Y005277D03*
X022797Y005277D03*
X022816Y005277D03*
X022836Y005277D03*
X022849Y005277D03*
X022869Y005277D03*
D147*
X022863Y005277D03*
X022856Y005277D03*
X022843Y005277D03*
X022830Y005277D03*
X022823Y005277D03*
X022810Y005277D03*
X022803Y005277D03*
X022790Y005277D03*
X022783Y005277D03*
X022770Y005277D03*
X022757Y005277D03*
X022750Y005277D03*
X022737Y005277D03*
X022731Y005277D03*
X022876Y005277D03*
X022882Y005277D03*
X021833Y005277D03*
X021820Y005277D03*
X021813Y005277D03*
D148*
X021840Y004610D03*
D149*
X021840Y005521D03*
D150*
X021972Y005323D03*
X021846Y004590D03*
D151*
X021846Y005541D03*
D152*
X021886Y005973D03*
X021892Y005973D03*
X021853Y004580D03*
D153*
X021853Y005250D03*
D154*
X021985Y005323D03*
X022717Y005693D03*
X021873Y005970D03*
X021866Y005970D03*
X021853Y005970D03*
D155*
X021939Y005983D03*
X021952Y005983D03*
X022671Y005693D03*
X022209Y004571D03*
X021859Y004571D03*
D156*
X021859Y005260D03*
D157*
X022724Y005693D03*
X021859Y005970D03*
D158*
X022005Y005993D03*
X022018Y005993D03*
X022638Y005696D03*
X022645Y005696D03*
X022401Y005214D03*
X022143Y004561D03*
X021866Y004561D03*
D159*
X021866Y005270D03*
D160*
X022057Y005326D03*
X022618Y005696D03*
X021873Y004554D03*
D161*
X021873Y005277D03*
D162*
X021879Y004548D03*
D163*
X021879Y005280D03*
D164*
X021879Y005973D03*
D165*
X022130Y006013D03*
X022143Y006013D03*
X023080Y005412D03*
X023087Y005412D03*
X023100Y005412D03*
X022368Y005240D03*
X022361Y005247D03*
X022110Y005326D03*
X023212Y004805D03*
X021886Y004541D03*
D166*
X021886Y005287D03*
D167*
X022335Y005260D03*
X022348Y005254D03*
X022552Y005696D03*
X022183Y006019D03*
X022170Y006019D03*
X022143Y004838D03*
X021892Y004534D03*
X023206Y004798D03*
D168*
X021892Y005293D03*
D169*
X022176Y005316D03*
X022321Y005270D03*
X023219Y005165D03*
X022539Y005693D03*
X022189Y006023D03*
X022909Y006023D03*
X022137Y004531D03*
X021899Y004531D03*
D170*
X021899Y005293D03*
X022889Y005577D03*
D171*
X021899Y005976D03*
D172*
X022236Y006029D03*
X022242Y006029D03*
X022922Y006029D03*
X023008Y006029D03*
X023193Y006029D03*
X022288Y005283D03*
X022255Y005297D03*
X022242Y005297D03*
X022236Y005303D03*
X022222Y005303D03*
X022110Y004841D03*
X022097Y004841D03*
X021906Y004524D03*
X023193Y004788D03*
D173*
X021906Y005300D03*
D174*
X021998Y005323D03*
X022420Y005191D03*
X022691Y005693D03*
X022698Y005693D03*
X021912Y005976D03*
X021906Y005976D03*
D175*
X021912Y004521D03*
X022222Y004521D03*
D176*
X021912Y005303D03*
X023226Y005580D03*
D177*
X022506Y005693D03*
X023179Y004782D03*
X021919Y004518D03*
D178*
X021919Y005303D03*
D179*
X021919Y005980D03*
D180*
X022295Y006039D03*
X022308Y006039D03*
X022948Y006039D03*
X023173Y006039D03*
X022902Y005161D03*
X021925Y004514D03*
D181*
X021925Y005306D03*
D182*
X021925Y005980D03*
X021932Y005980D03*
D183*
X022077Y004841D03*
X022216Y004841D03*
X021932Y004511D03*
D184*
X021932Y005310D03*
D185*
X022519Y005227D03*
X023146Y004772D03*
X021939Y004508D03*
X022341Y006046D03*
X022354Y006046D03*
X022981Y006046D03*
X023127Y006046D03*
X023146Y006046D03*
D186*
X021939Y005310D03*
D187*
X022533Y005224D03*
X023206Y005165D03*
X022222Y004841D03*
X022071Y004841D03*
X022975Y004769D03*
X022988Y004769D03*
X023133Y004769D03*
X023140Y004769D03*
X023140Y004505D03*
X023133Y004505D03*
X023120Y004505D03*
X023113Y004505D03*
X023100Y004505D03*
X023087Y004505D03*
X023080Y004505D03*
X023067Y004505D03*
X023061Y004505D03*
X023047Y004505D03*
X023041Y004505D03*
X023028Y004505D03*
X023021Y004505D03*
X023008Y004505D03*
X022995Y004505D03*
X022988Y004505D03*
X022975Y004505D03*
X022968Y004505D03*
X022955Y004505D03*
X022948Y004505D03*
X022935Y004505D03*
X022922Y004505D03*
X022915Y004505D03*
X022902Y004505D03*
X022896Y004505D03*
X023153Y004505D03*
X023160Y004505D03*
X023173Y004505D03*
X023186Y004505D03*
X023193Y004505D03*
X023206Y004505D03*
X023212Y004505D03*
X022130Y004505D03*
X021945Y004505D03*
X022453Y005693D03*
X022460Y005693D03*
X022368Y006049D03*
X022361Y006049D03*
X022988Y006049D03*
X022995Y006049D03*
X023113Y006049D03*
X023120Y006049D03*
D188*
X021945Y005313D03*
X022440Y005155D03*
D189*
X022678Y005693D03*
X021945Y005983D03*
D190*
X021952Y004501D03*
X022704Y004501D03*
X022724Y004501D03*
D191*
X021952Y005316D03*
D192*
X022427Y005693D03*
X022440Y005693D03*
X022407Y006056D03*
X022401Y006056D03*
X023021Y004762D03*
X023028Y004762D03*
X023041Y004762D03*
X023047Y004762D03*
X023061Y004762D03*
X023067Y004762D03*
X023080Y004762D03*
X023087Y004762D03*
X022691Y004498D03*
X022678Y004498D03*
X022665Y004498D03*
X022658Y004498D03*
X022645Y004498D03*
X022638Y004498D03*
X022625Y004498D03*
X022618Y004498D03*
X021958Y004498D03*
D193*
X021958Y005316D03*
X023021Y005957D03*
X023028Y005957D03*
X023041Y005957D03*
X023047Y005957D03*
X023061Y005957D03*
X023067Y005957D03*
X023080Y005957D03*
X023087Y005957D03*
D194*
X022665Y005696D03*
X022018Y005326D03*
X021978Y005986D03*
X021965Y005986D03*
X021958Y005986D03*
D195*
X022420Y006059D03*
X022427Y006059D03*
X022420Y005696D03*
X022572Y005221D03*
X022585Y005221D03*
X022915Y005161D03*
X022605Y004495D03*
X022592Y004495D03*
X022585Y004495D03*
X022572Y004495D03*
X022566Y004495D03*
X022552Y004495D03*
X022546Y004495D03*
X022533Y004495D03*
X021965Y004495D03*
D196*
X021965Y005320D03*
D197*
X023219Y005699D03*
X022519Y004491D03*
X022506Y004491D03*
X022486Y004491D03*
X022467Y004491D03*
X022447Y004491D03*
X021972Y004491D03*
D198*
X022414Y005201D03*
X022024Y005326D03*
X021972Y005986D03*
D199*
X022473Y006065D03*
X022480Y006065D03*
X022605Y005221D03*
X023193Y005168D03*
X022440Y004488D03*
X022427Y004488D03*
X022420Y004488D03*
X022407Y004488D03*
X022401Y004488D03*
X022387Y004488D03*
X022381Y004488D03*
X022368Y004488D03*
X022361Y004488D03*
X021985Y004488D03*
X021978Y004488D03*
D200*
X021978Y005320D03*
D201*
X022031Y005330D03*
X022658Y005693D03*
X021998Y005990D03*
X021985Y005990D03*
D202*
X022394Y005693D03*
X022612Y005217D03*
X022354Y004485D03*
X022341Y004485D03*
X022321Y004485D03*
X022302Y004485D03*
X022282Y004485D03*
X021991Y004485D03*
D203*
X021991Y005326D03*
X022704Y005696D03*
D204*
X022651Y005693D03*
X021991Y005990D03*
D205*
X022381Y005693D03*
X022387Y005693D03*
X022902Y005693D03*
X023212Y005693D03*
X022625Y005217D03*
X022618Y005217D03*
X022348Y004485D03*
X022335Y004485D03*
X022328Y004485D03*
X022315Y004485D03*
X022308Y004485D03*
X022295Y004485D03*
X022288Y004485D03*
X022275Y004485D03*
X021998Y004485D03*
D206*
X022005Y004481D03*
X022236Y004481D03*
X022242Y004481D03*
X022255Y004481D03*
X022262Y004481D03*
X022638Y005214D03*
X022645Y005214D03*
X023212Y005471D03*
D207*
X022005Y005326D03*
D208*
X022929Y005165D03*
X022909Y005686D03*
X022374Y005693D03*
X022539Y006075D03*
X022011Y004478D03*
D209*
X022011Y005326D03*
X022684Y005696D03*
D210*
X022011Y005993D03*
D211*
X022526Y006075D03*
X022533Y006075D03*
X022368Y005693D03*
X022361Y005693D03*
X023206Y005686D03*
X022440Y004828D03*
X022018Y004478D03*
D212*
X022024Y004475D03*
X023199Y005683D03*
D213*
X022889Y005996D03*
X022024Y005996D03*
D214*
X022915Y005683D03*
X022123Y004475D03*
X022038Y004475D03*
X022031Y004475D03*
D215*
X022051Y005330D03*
X022038Y005996D03*
X022031Y005996D03*
D216*
X022975Y005828D03*
X022968Y005663D03*
X023153Y005663D03*
X023153Y005498D03*
X023160Y005498D03*
X023133Y005340D03*
X022975Y005340D03*
X022038Y004845D03*
D217*
X022038Y005326D03*
D218*
X022671Y005211D03*
X022684Y005211D03*
X023199Y005481D03*
X022249Y004841D03*
X022044Y004841D03*
X022044Y004472D03*
D219*
X022044Y005326D03*
D220*
X022044Y006000D03*
D221*
X022922Y005679D03*
X023193Y005679D03*
X022691Y005211D03*
X022678Y005211D03*
X022051Y004472D03*
D222*
X022051Y004841D03*
X022242Y004841D03*
X022922Y005165D03*
X022500Y006069D03*
X022493Y006069D03*
D223*
X022057Y006000D03*
X022051Y006000D03*
X023226Y005993D03*
X023226Y005168D03*
D224*
X023173Y005168D03*
X022698Y005208D03*
X023021Y004996D03*
X023028Y004996D03*
X023041Y004996D03*
X023047Y004996D03*
X023061Y004996D03*
X023067Y004996D03*
X023080Y004996D03*
X023087Y004996D03*
X023100Y004996D03*
X023193Y005485D03*
X023186Y005676D03*
X023100Y005828D03*
X023008Y005828D03*
X022605Y006085D03*
X022592Y006085D03*
X022071Y004468D03*
X022057Y004468D03*
D225*
X022453Y004491D03*
X022460Y004491D03*
X022473Y004491D03*
X022480Y004491D03*
X022493Y004491D03*
X022500Y004491D03*
X022513Y004491D03*
X022526Y004491D03*
X022236Y004841D03*
X022057Y004841D03*
X022896Y005699D03*
D226*
X022929Y005676D03*
X022599Y006085D03*
X023166Y005168D03*
X023094Y004996D03*
X023074Y004996D03*
X023054Y004996D03*
X023034Y004996D03*
X023014Y004996D03*
X022909Y004864D03*
X022064Y004468D03*
D227*
X022064Y004841D03*
X022229Y004841D03*
X022559Y005224D03*
D228*
X022394Y005221D03*
X022064Y005326D03*
X022889Y005161D03*
D229*
X022612Y005693D03*
X022064Y006003D03*
D230*
X022071Y006003D03*
X022077Y006003D03*
X022605Y005693D03*
X022077Y005330D03*
X022071Y005330D03*
X022381Y005231D03*
X022387Y005224D03*
D231*
X022948Y005165D03*
X022935Y005673D03*
X022328Y005693D03*
X022315Y005693D03*
X022097Y004465D03*
X022090Y004465D03*
X022077Y004465D03*
D232*
X022084Y004465D03*
X023107Y005000D03*
X023179Y005673D03*
X022321Y005693D03*
D233*
X022486Y005696D03*
X022302Y006039D03*
X022942Y006039D03*
X023166Y006039D03*
X022084Y004844D03*
X023166Y004779D03*
D234*
X023219Y004811D03*
X022374Y005234D03*
X022084Y005326D03*
X022599Y005696D03*
X022104Y006006D03*
X022084Y006006D03*
D235*
X022275Y006036D03*
X022288Y006036D03*
X022935Y006036D03*
X022090Y004841D03*
D236*
X022090Y005326D03*
X022097Y005326D03*
X022097Y006006D03*
X022090Y006006D03*
D237*
X022632Y006092D03*
X022942Y005669D03*
X023179Y005491D03*
X023107Y005339D03*
X023001Y005339D03*
X023001Y004996D03*
X022434Y004811D03*
X022117Y004462D03*
X022104Y004462D03*
D238*
X022104Y004841D03*
X022249Y005297D03*
X022229Y005303D03*
X022249Y006029D03*
D239*
X022137Y006013D03*
X023094Y005412D03*
X022117Y005326D03*
X022104Y005326D03*
D240*
X022988Y005339D03*
X022995Y005339D03*
X023113Y005339D03*
X023120Y005339D03*
X023173Y005491D03*
X023173Y005669D03*
X022988Y005828D03*
X022645Y006092D03*
X022638Y006092D03*
X023160Y005168D03*
X023120Y004996D03*
X023113Y004996D03*
X023008Y004996D03*
X022995Y004996D03*
X022988Y004996D03*
X022110Y004462D03*
D241*
X022216Y004544D03*
X022123Y006009D03*
X022110Y006009D03*
X022896Y006009D03*
D242*
X022117Y004841D03*
D243*
X022117Y006009D03*
X023219Y006009D03*
D244*
X022328Y005264D03*
X022130Y004841D03*
X022123Y004841D03*
D245*
X022123Y005323D03*
X022130Y005323D03*
X022150Y006016D03*
X022163Y006016D03*
X022902Y006016D03*
X023212Y006016D03*
D246*
X022176Y006019D03*
X022137Y004838D03*
D247*
X022137Y005323D03*
X022156Y006016D03*
D248*
X022150Y005320D03*
X022143Y005320D03*
D249*
X022150Y004686D03*
X022163Y004686D03*
X022170Y004686D03*
D250*
X022176Y004686D03*
X022156Y004686D03*
D251*
X022156Y005320D03*
D252*
X022163Y005316D03*
X022170Y005316D03*
X022315Y005270D03*
X022546Y005693D03*
X022203Y006023D03*
X022196Y006023D03*
X023206Y006023D03*
D253*
X022196Y004683D03*
X022183Y004683D03*
D254*
X022896Y005161D03*
X022308Y005274D03*
X022216Y005306D03*
X022203Y005306D03*
X022196Y005313D03*
X022183Y005313D03*
X022533Y005696D03*
X022222Y006026D03*
X022216Y006026D03*
X022915Y006026D03*
D255*
X022196Y005693D03*
X022183Y005693D03*
D256*
X022189Y004683D03*
D257*
X023199Y004792D03*
X022282Y005287D03*
X022209Y005306D03*
X022189Y005313D03*
X022209Y006026D03*
X022229Y006026D03*
X023199Y006026D03*
D258*
X022189Y005693D03*
D259*
X022203Y004679D03*
D260*
X022407Y004775D03*
X022216Y005693D03*
X022203Y005693D03*
D261*
X022282Y006036D03*
X023179Y006036D03*
X022209Y004841D03*
D262*
X022909Y005409D03*
X022209Y005693D03*
D263*
X022222Y005696D03*
D264*
X022434Y006059D03*
X022579Y005221D03*
X023199Y005168D03*
X022612Y004495D03*
X022599Y004495D03*
X022579Y004495D03*
X022559Y004495D03*
X022539Y004495D03*
X022229Y004495D03*
D265*
X023014Y005165D03*
X022229Y005693D03*
D266*
X022236Y005693D03*
X022242Y005693D03*
X023153Y005000D03*
D267*
X022632Y005214D03*
X023107Y005471D03*
X022269Y004481D03*
X022249Y004481D03*
D268*
X022249Y005693D03*
X023014Y005653D03*
X023034Y005653D03*
X023054Y005653D03*
X023074Y005653D03*
X023094Y005653D03*
D269*
X023133Y005660D03*
X023140Y005660D03*
X022975Y005660D03*
X023133Y005501D03*
X023140Y005501D03*
X023140Y005336D03*
X023140Y005171D03*
X022975Y005165D03*
X022968Y005165D03*
X023140Y005000D03*
X022935Y004848D03*
X022427Y004802D03*
X022255Y004841D03*
X023140Y005831D03*
X022711Y006102D03*
X022698Y006102D03*
X022691Y006102D03*
D270*
X023021Y005653D03*
X023028Y005653D03*
X023041Y005653D03*
X023047Y005653D03*
X023061Y005653D03*
X023067Y005653D03*
X023080Y005653D03*
X023087Y005653D03*
X022896Y005402D03*
X022262Y005693D03*
X022255Y005693D03*
X022988Y005165D03*
D271*
X023186Y004785D03*
X023186Y006033D03*
X023100Y006033D03*
X022262Y006033D03*
X022255Y006033D03*
D272*
X022513Y005693D03*
X022526Y005693D03*
X022275Y005290D03*
X022262Y005290D03*
D273*
X022269Y005290D03*
X022519Y005693D03*
D274*
X022282Y005693D03*
X022269Y005693D03*
D275*
X022269Y006033D03*
X022929Y006033D03*
D276*
X022275Y005693D03*
D277*
X022288Y005693D03*
X022295Y005693D03*
X022308Y005693D03*
X022658Y006095D03*
X022665Y006095D03*
X022955Y005165D03*
X022922Y004854D03*
D278*
X022295Y005280D03*
D279*
X022302Y005280D03*
D280*
X022962Y005165D03*
X023127Y005000D03*
X023166Y005495D03*
X022302Y005693D03*
X022651Y006095D03*
D281*
X022955Y006042D03*
X023153Y006042D03*
X023160Y006042D03*
X022328Y006042D03*
X022315Y006042D03*
X022473Y005693D03*
X022480Y005693D03*
X023153Y004775D03*
X023160Y004775D03*
D282*
X022962Y006042D03*
X022321Y006042D03*
D283*
X022566Y006082D03*
X022572Y006082D03*
X022585Y006082D03*
X022348Y005693D03*
X022335Y005693D03*
D284*
X022335Y006046D03*
X022348Y006046D03*
X022968Y006046D03*
X022975Y006046D03*
X023133Y006046D03*
X023140Y006046D03*
X022526Y005227D03*
D285*
X022354Y005250D03*
X022341Y005257D03*
X022559Y005693D03*
D286*
X022341Y005693D03*
X022579Y006082D03*
X022942Y005165D03*
D287*
X023179Y005168D03*
X022651Y005214D03*
X022354Y005696D03*
X022559Y006079D03*
D288*
X022467Y006065D03*
X023219Y005465D03*
X022599Y005221D03*
X022434Y004488D03*
X022414Y004488D03*
X022394Y004488D03*
X022374Y004488D03*
D289*
X022909Y004505D03*
X022929Y004505D03*
X022942Y004505D03*
X022962Y004505D03*
X022981Y004505D03*
X023001Y004505D03*
X023014Y004505D03*
X023034Y004505D03*
X023054Y004505D03*
X023074Y004505D03*
X023094Y004505D03*
X023107Y004505D03*
X023127Y004505D03*
X023146Y004505D03*
X023166Y004505D03*
X023179Y004505D03*
X023199Y004505D03*
X023127Y004769D03*
X022981Y004769D03*
X022909Y005165D03*
X022539Y005224D03*
X022447Y005693D03*
X022374Y006049D03*
X023001Y006049D03*
X023107Y006049D03*
D290*
X022387Y006052D03*
X022381Y006052D03*
X022546Y005227D03*
X022995Y004765D03*
X023008Y004765D03*
X023100Y004765D03*
X023113Y004765D03*
X023120Y004765D03*
D291*
X023107Y004765D03*
X023014Y004765D03*
X023001Y004765D03*
X023219Y004508D03*
X022394Y006052D03*
D292*
X022915Y005412D03*
X022401Y004772D03*
D293*
X022592Y005217D03*
X022407Y005693D03*
X022401Y005693D03*
X022440Y006062D03*
X022453Y006062D03*
X022460Y006062D03*
D294*
X022407Y005204D03*
D295*
X022962Y005340D03*
X023034Y005168D03*
X023054Y005168D03*
X023074Y005168D03*
X023094Y005168D03*
X022414Y004785D03*
D296*
X022414Y005693D03*
X022447Y006062D03*
D297*
X022414Y006056D03*
X022434Y005693D03*
X023034Y004762D03*
X023054Y004762D03*
X023074Y004762D03*
X023094Y004762D03*
X022684Y004498D03*
X022671Y004498D03*
X022651Y004498D03*
X022632Y004498D03*
D298*
X022420Y004792D03*
X022968Y004838D03*
X022995Y005168D03*
X023008Y005168D03*
X023113Y005168D03*
X023120Y005168D03*
X023067Y005313D03*
X023061Y005313D03*
X023047Y005313D03*
X023041Y005313D03*
X023028Y005313D03*
X023021Y005313D03*
D299*
X022427Y005181D03*
X022711Y005696D03*
D300*
X022434Y005171D03*
D301*
X022447Y005052D03*
D302*
X022453Y005052D03*
X022460Y005052D03*
D303*
X022467Y005049D03*
D304*
X022467Y005696D03*
D305*
X022473Y005049D03*
X022480Y005049D03*
D306*
X022486Y005052D03*
D307*
X022486Y006069D03*
D308*
X022493Y005049D03*
X022500Y005049D03*
D309*
X023212Y005165D03*
X023173Y004782D03*
X022500Y005693D03*
X022493Y005693D03*
D310*
X022506Y005049D03*
D311*
X022506Y006072D03*
X022519Y006072D03*
D312*
X022513Y005046D03*
X023226Y004696D03*
D313*
X022896Y004878D03*
X023186Y005168D03*
X022513Y006072D03*
D314*
X022546Y006079D03*
X022552Y006079D03*
X023206Y005478D03*
X022665Y005214D03*
X022658Y005214D03*
X022935Y005168D03*
X022902Y004871D03*
D315*
X022566Y005224D03*
X022552Y005224D03*
D316*
X022566Y005693D03*
X022572Y005693D03*
D317*
X022579Y005693D03*
D318*
X022585Y005693D03*
X022592Y005693D03*
D319*
X023001Y005831D03*
X023107Y005831D03*
X022612Y006089D03*
X022704Y005211D03*
D320*
X022711Y005211D03*
X023186Y005488D03*
X023120Y005831D03*
X023113Y005831D03*
X022995Y005831D03*
X022625Y006089D03*
X022618Y006089D03*
X022915Y004861D03*
D321*
X022625Y005693D03*
D322*
X022632Y005693D03*
D323*
X022671Y006099D03*
X022684Y006099D03*
X022981Y004996D03*
X022929Y004851D03*
D324*
X022975Y004996D03*
X023133Y004996D03*
X022678Y006099D03*
D325*
X022698Y004501D03*
X022711Y004501D03*
X022717Y004501D03*
D326*
X023146Y005501D03*
X023127Y005660D03*
X022981Y005660D03*
X022704Y006102D03*
D327*
X022717Y005208D03*
D328*
X022968Y005340D03*
X022968Y005505D03*
X022975Y005505D03*
X022988Y005505D03*
X022995Y005505D03*
X023008Y005505D03*
X023021Y005505D03*
X023028Y005505D03*
X023041Y005505D03*
X023047Y005505D03*
X023061Y005505D03*
X023067Y005505D03*
X023113Y005505D03*
X023120Y005505D03*
X022955Y005505D03*
X022948Y005505D03*
X022935Y005505D03*
X022922Y005505D03*
X022915Y005505D03*
X022902Y005505D03*
X022896Y005505D03*
X022968Y005828D03*
X022717Y006105D03*
X023133Y005168D03*
X022948Y004845D03*
D329*
X022724Y005208D03*
D330*
X022981Y005168D03*
X023127Y005168D03*
X023146Y005340D03*
X023127Y005505D03*
X023074Y005505D03*
X023054Y005505D03*
X023034Y005505D03*
X023014Y005505D03*
X023001Y005505D03*
X022981Y005505D03*
X022962Y005505D03*
X022942Y005505D03*
X022929Y005505D03*
X022909Y005505D03*
X023146Y005828D03*
X022724Y006105D03*
X022942Y004845D03*
D331*
X022889Y004693D03*
D332*
X023021Y005168D03*
X023028Y005168D03*
X023041Y005168D03*
X023047Y005168D03*
X023061Y005168D03*
X023067Y005168D03*
X023080Y005168D03*
X023087Y005168D03*
X023153Y005340D03*
X022902Y005405D03*
D333*
X022948Y005666D03*
X022955Y005666D03*
X023160Y005666D03*
X023133Y005831D03*
X023153Y005171D03*
D334*
X022955Y004841D03*
D335*
X022962Y004838D03*
X023001Y005168D03*
X023107Y005168D03*
X023074Y005313D03*
X023054Y005313D03*
X023034Y005313D03*
X023014Y005313D03*
D336*
X022962Y004996D03*
D337*
X023146Y005168D03*
X022981Y005340D03*
X022962Y005663D03*
X023146Y005663D03*
D338*
X022962Y005831D03*
D339*
X022988Y005656D03*
X022995Y005656D03*
X023008Y005656D03*
X023100Y005656D03*
X023113Y005656D03*
X023120Y005656D03*
X022968Y004996D03*
D340*
X023127Y005336D03*
X023166Y005666D03*
X023127Y005831D03*
X022981Y005831D03*
D341*
X023001Y005656D03*
X023107Y005656D03*
X023146Y004996D03*
D342*
X023100Y005171D03*
X023008Y005316D03*
X023153Y005831D03*
D343*
X023094Y005957D03*
X023074Y005957D03*
X023054Y005957D03*
X023034Y005957D03*
X023014Y005957D03*
D344*
X023292Y005277D03*
D345*
X023311Y005277D03*
D346*
X023325Y005277D03*
D347*
X023338Y005280D03*
D348*
X023364Y005277D03*
M02*
