%
M48
M72
T01C0.0120
T02C0.0360
T03C0.0400
T04C0.0433
T05C0.0866
%
T01
X6523Y800
X15898Y3300
X18773Y2800
X15898Y4300
X14773Y4300
X14273Y4300
X6523Y6800
X26523Y6800
X26523Y800
T02
X8093Y2422
X8093Y3356
X8093Y4244
X8093Y5178
T03
X12648Y6400
X13648Y6400
X14648Y6400
X15648Y6400
T04
X7109Y4686
X7109Y2914
X24484Y2422
X24484Y3800
X24484Y5178
T05
X7148Y6083
X7148Y1517
M30
