G75*
%MOIN*%
%OFA0B0*%
%FSLAX24Y24*%
%IPPOS*%
%LPD*%
%AMOC8*
5,1,8,0,0,1.08239X$1,22.5*
%
%ADD10R,0.0630X0.0787*%
%ADD11R,0.0630X0.0709*%
%ADD12C,0.0740*%
%ADD13C,0.1266*%
%ADD14R,0.0866X0.0236*%
%ADD15R,0.0709X0.0630*%
%ADD16R,0.0260X0.0800*%
%ADD17R,0.2362X0.0787*%
%ADD18R,0.1378X0.0787*%
%ADD19R,0.0480X0.0160*%
%ADD20R,0.0394X0.1260*%
%ADD21C,0.0669*%
%ADD22C,0.0080*%
%ADD23R,0.0250X0.0500*%
%ADD24C,0.0120*%
%ADD25C,0.0240*%
%ADD26C,0.0060*%
%ADD27C,0.0100*%
D10*
X017097Y001300D03*
X018199Y001300D03*
D11*
X014699Y001300D03*
X013597Y001300D03*
X011199Y006300D03*
X010097Y006300D03*
X017097Y006300D03*
X018199Y006300D03*
D12*
X015648Y006400D03*
X014648Y006400D03*
X013648Y006400D03*
X012648Y006400D03*
X008093Y005178D03*
X008093Y004244D03*
X008093Y003356D03*
X008093Y002422D03*
D13*
X007148Y001517D03*
X007148Y006083D03*
D14*
X009624Y004550D03*
X009624Y004050D03*
X009624Y003550D03*
X009624Y003050D03*
X011671Y003050D03*
X011671Y003550D03*
X011671Y004050D03*
X011671Y004550D03*
D15*
X019648Y004351D03*
X019648Y003249D03*
D16*
X015898Y002590D03*
X015398Y002590D03*
X014898Y002590D03*
X014398Y002590D03*
X014398Y005010D03*
X014898Y005010D03*
X015398Y005010D03*
X015898Y005010D03*
D17*
X024973Y005375D03*
X024973Y003800D03*
X024973Y002225D03*
D18*
X021331Y002225D03*
X021331Y003800D03*
X021331Y005375D03*
D19*
X018303Y004300D03*
X016993Y004300D03*
X016993Y003800D03*
X018303Y003800D03*
X018303Y003300D03*
X016993Y003300D03*
D20*
X011238Y001550D03*
X010057Y001550D03*
D21*
X024484Y002422D03*
X024484Y003800D03*
X024484Y005178D03*
D22*
X014898Y005010D02*
X014898Y004425D01*
X014773Y004300D01*
X013773Y003300D01*
X013348Y003300D01*
X013298Y003300D02*
X012998Y003300D01*
X012948Y003300D02*
X012523Y003300D01*
X012273Y003550D01*
X011671Y003550D01*
X011671Y004050D02*
X012273Y004050D01*
X012523Y004300D01*
X012948Y004300D01*
X012998Y004300D02*
X013298Y004300D01*
X013348Y004300D02*
X014273Y004300D01*
X014398Y004425D01*
X014398Y005010D01*
X011671Y005076D02*
X011671Y004550D01*
X011671Y005076D02*
X011198Y005550D01*
X011198Y006276D01*
X011199Y006300D01*
X009624Y004550D02*
X008998Y004550D01*
X008692Y004244D01*
X008093Y004244D01*
X008536Y003800D02*
X009073Y003800D01*
X009323Y004050D01*
X008536Y003800D02*
X008093Y003356D01*
D23*
X012948Y003300D03*
X013348Y003300D03*
X013348Y004300D03*
X012948Y004300D03*
D24*
X006308Y006940D02*
X006308Y000660D01*
X026738Y000660D01*
X026738Y006940D01*
X006308Y006940D01*
X006308Y006831D02*
X006984Y006831D01*
X006998Y006837D02*
X006721Y006722D01*
X006509Y006510D01*
X006395Y006233D01*
X006395Y005934D01*
X006509Y005657D01*
X006721Y005445D01*
X006998Y005330D01*
X007298Y005330D01*
X007574Y005445D01*
X007786Y005657D01*
X007901Y005934D01*
X007901Y006233D01*
X007786Y006510D01*
X007574Y006722D01*
X007298Y006837D01*
X006998Y006837D01*
X006711Y006712D02*
X006308Y006712D01*
X006308Y006594D02*
X006593Y006594D01*
X006495Y006475D02*
X006308Y006475D01*
X006308Y006357D02*
X006446Y006357D01*
X006397Y006238D02*
X006308Y006238D01*
X006308Y006120D02*
X006395Y006120D01*
X006395Y006001D02*
X006308Y006001D01*
X006308Y005883D02*
X006416Y005883D01*
X006465Y005764D02*
X006308Y005764D01*
X006308Y005646D02*
X006521Y005646D01*
X006639Y005527D02*
X006308Y005527D01*
X006308Y005409D02*
X006809Y005409D01*
X006308Y005290D02*
X007574Y005290D01*
X007576Y005302D02*
X007563Y005220D01*
X007563Y005208D01*
X008063Y005208D01*
X008063Y005708D01*
X008051Y005708D01*
X007969Y005695D01*
X007889Y005669D01*
X007815Y005631D01*
X007747Y005582D01*
X007688Y005523D01*
X007639Y005456D01*
X007602Y005381D01*
X007576Y005302D01*
X007615Y005409D02*
X007486Y005409D01*
X007656Y005527D02*
X007692Y005527D01*
X008063Y005527D02*
X008123Y005527D01*
X008123Y005409D02*
X008063Y005409D01*
X008063Y005290D02*
X008123Y005290D01*
X008123Y005208D02*
X008063Y005208D01*
X008063Y005148D01*
X007563Y005148D01*
X007563Y005136D01*
X007576Y005054D01*
X007602Y004975D01*
X007639Y004900D01*
X007688Y004833D01*
X007747Y004774D01*
X007815Y004725D01*
X007886Y004688D01*
X007815Y004659D01*
X007677Y004521D01*
X007603Y004341D01*
X007603Y004146D01*
X007677Y003966D01*
X007815Y003828D01*
X007884Y003800D01*
X007815Y003772D01*
X007677Y003634D01*
X007603Y003454D01*
X007603Y003259D01*
X007677Y003079D01*
X007815Y002941D01*
X007940Y002889D01*
X007815Y002837D01*
X007677Y002700D01*
X007603Y002520D01*
X007603Y002325D01*
X007677Y002144D01*
X007815Y002007D01*
X007995Y001932D01*
X008190Y001932D01*
X008298Y001977D01*
X008894Y001380D01*
X009740Y001380D01*
X009740Y000870D01*
X009811Y000800D01*
X010304Y000800D01*
X010374Y000870D01*
X010374Y002230D01*
X010304Y002300D01*
X009811Y002300D01*
X009740Y002230D01*
X009740Y001720D01*
X009035Y001720D01*
X008538Y002217D01*
X008583Y002325D01*
X008583Y002520D01*
X008508Y002700D01*
X008370Y002837D01*
X008245Y002889D01*
X008370Y002941D01*
X008508Y003079D01*
X008583Y003259D01*
X008583Y003454D01*
X008534Y003571D01*
X008603Y003640D01*
X009031Y003640D01*
X009031Y003550D01*
X009031Y003411D01*
X009042Y003370D01*
X009063Y003334D01*
X009093Y003304D01*
X009129Y003283D01*
X009135Y003281D01*
X009071Y003218D01*
X009071Y002882D01*
X009141Y002812D01*
X010107Y002812D01*
X010177Y002882D01*
X010177Y003218D01*
X010114Y003281D01*
X010119Y003283D01*
X010156Y003304D01*
X010185Y003334D01*
X010206Y003370D01*
X010217Y003411D01*
X010217Y003550D01*
X010217Y003689D01*
X010206Y003730D01*
X010185Y003766D01*
X010156Y003796D01*
X010119Y003817D01*
X010114Y003819D01*
X010177Y003882D01*
X010177Y004218D01*
X010107Y004288D01*
X009141Y004288D01*
X009071Y004218D01*
X009071Y004025D01*
X009007Y003960D01*
X008502Y003960D01*
X008508Y003966D01*
X008557Y004084D01*
X008758Y004084D01*
X008852Y004177D01*
X009064Y004390D01*
X009071Y004390D01*
X009071Y004382D01*
X009141Y004312D01*
X010107Y004312D01*
X010177Y004382D01*
X010177Y004718D01*
X010107Y004788D01*
X009141Y004788D01*
X009071Y004718D01*
X009071Y004710D01*
X008932Y004710D01*
X008625Y004404D01*
X008557Y004404D01*
X008508Y004521D01*
X008370Y004659D01*
X008299Y004688D01*
X008371Y004725D01*
X008438Y004774D01*
X008497Y004833D01*
X008546Y004900D01*
X008584Y004975D01*
X008610Y005054D01*
X008623Y005136D01*
X008623Y005148D01*
X008123Y005148D01*
X008123Y005208D01*
X008623Y005208D01*
X008623Y005220D01*
X008610Y005302D01*
X008584Y005381D01*
X008546Y005456D01*
X008497Y005523D01*
X008438Y005582D01*
X008371Y005631D01*
X008296Y005669D01*
X008217Y005695D01*
X008134Y005708D01*
X008123Y005708D01*
X008123Y005208D01*
X008123Y005172D02*
X011350Y005172D01*
X011232Y005290D02*
X008612Y005290D01*
X008570Y005409D02*
X011113Y005409D01*
X011132Y005390D02*
X011038Y005484D01*
X011038Y005826D01*
X010834Y005826D01*
X010764Y005896D01*
X010764Y006704D01*
X010834Y006774D01*
X011564Y006774D01*
X011634Y006704D01*
X011634Y005896D01*
X011564Y005826D01*
X011358Y005826D01*
X011358Y005616D01*
X011738Y005236D01*
X011738Y005236D01*
X011831Y005143D01*
X011831Y004788D01*
X012154Y004788D01*
X012225Y004718D01*
X012225Y004382D01*
X012154Y004312D01*
X011189Y004312D01*
X011118Y004382D01*
X011118Y004718D01*
X011189Y004788D01*
X011511Y004788D01*
X011511Y005010D01*
X011132Y005390D01*
X011566Y005409D02*
X014148Y005409D01*
X014148Y005460D02*
X014148Y004560D01*
X014185Y004523D01*
X014137Y004503D01*
X014093Y004460D01*
X013593Y004460D01*
X013593Y004600D01*
X013523Y004670D01*
X013173Y004670D01*
X013148Y004645D01*
X013123Y004670D01*
X012773Y004670D01*
X012703Y004600D01*
X012703Y004460D01*
X012457Y004460D01*
X012363Y004366D01*
X012219Y004223D01*
X012154Y004288D01*
X011189Y004288D01*
X011118Y004218D01*
X011118Y003882D01*
X011189Y003812D01*
X012154Y003812D01*
X012225Y003882D01*
X012225Y003890D01*
X012339Y003890D01*
X012589Y004140D01*
X012703Y004140D01*
X012703Y004000D01*
X012773Y003930D01*
X013123Y003930D01*
X013148Y003955D01*
X013173Y003930D01*
X013523Y003930D01*
X013593Y004000D01*
X013593Y004140D01*
X014093Y004140D01*
X014137Y004097D01*
X014225Y004060D01*
X014307Y004060D01*
X013707Y003460D01*
X013593Y003460D01*
X013593Y003600D01*
X013523Y003670D01*
X013173Y003670D01*
X013148Y003645D01*
X013123Y003670D01*
X012773Y003670D01*
X012703Y003600D01*
X012703Y003460D01*
X012589Y003460D01*
X012339Y003710D01*
X012225Y003710D01*
X012225Y003718D01*
X012154Y003788D01*
X011189Y003788D01*
X011118Y003718D01*
X011118Y003382D01*
X011189Y003312D01*
X012154Y003312D01*
X012219Y003377D01*
X012457Y003140D01*
X012703Y003140D01*
X012703Y003000D01*
X012773Y002930D01*
X013123Y002930D01*
X013148Y002955D01*
X013173Y002930D01*
X013523Y002930D01*
X013593Y003000D01*
X013593Y003140D01*
X013839Y003140D01*
X013933Y003234D01*
X014759Y004060D01*
X014821Y004060D01*
X014909Y004097D01*
X014976Y004164D01*
X015013Y004252D01*
X015013Y004314D01*
X015058Y004359D01*
X015058Y004490D01*
X015078Y004490D01*
X015148Y004560D01*
X015218Y004490D01*
X015578Y004490D01*
X015648Y004560D01*
X015718Y004490D01*
X015728Y004490D01*
X015728Y004469D01*
X015694Y004436D01*
X015658Y004348D01*
X015658Y004252D01*
X015694Y004164D01*
X015762Y004097D01*
X015850Y004060D01*
X015946Y004060D01*
X016034Y004097D01*
X016101Y004164D01*
X016138Y004252D01*
X016138Y004348D01*
X016101Y004436D01*
X016068Y004469D01*
X016068Y004490D01*
X016078Y004490D01*
X016148Y004560D01*
X016148Y005460D01*
X016078Y005530D01*
X015718Y005530D01*
X015648Y005460D01*
X015648Y005170D01*
X015648Y005170D01*
X015648Y005460D01*
X015578Y005530D01*
X015218Y005530D01*
X015148Y005460D01*
X015148Y004560D01*
X015148Y005460D01*
X015078Y005530D01*
X014718Y005530D01*
X014648Y005460D01*
X014648Y004560D01*
X014685Y004523D01*
X014637Y004503D01*
X014569Y004436D01*
X014558Y004408D01*
X014558Y004490D01*
X014578Y004490D01*
X014648Y004560D01*
X014648Y005460D01*
X014578Y005530D01*
X014218Y005530D01*
X014148Y005460D01*
X014215Y005527D02*
X011447Y005527D01*
X011358Y005646D02*
X016228Y005646D01*
X016228Y005645D02*
X016228Y003995D01*
X016202Y003970D01*
X015452Y003970D01*
X014728Y003245D01*
X014728Y003110D01*
X014718Y003110D01*
X014671Y003063D01*
X014656Y003088D01*
X014626Y003118D01*
X014590Y003139D01*
X014549Y003150D01*
X014403Y003150D01*
X014403Y002595D01*
X014393Y002595D01*
X014393Y003150D01*
X014247Y003150D01*
X014206Y003139D01*
X014170Y003118D01*
X014140Y003088D01*
X014119Y003052D01*
X014108Y003011D01*
X014108Y002595D01*
X014393Y002595D01*
X014393Y002585D01*
X014403Y002585D01*
X014403Y002030D01*
X014549Y002030D01*
X014590Y002041D01*
X014626Y002062D01*
X014656Y002092D01*
X014671Y002117D01*
X014718Y002070D01*
X015078Y002070D01*
X015148Y002140D01*
X015218Y002070D01*
X015578Y002070D01*
X015648Y002140D01*
X015698Y002090D01*
X015577Y001970D01*
X015102Y001970D01*
X014907Y001774D01*
X014514Y001774D01*
X014318Y001970D01*
X013593Y001970D01*
X012343Y003220D01*
X012222Y003220D01*
X012154Y003288D01*
X011189Y003288D01*
X011118Y003218D01*
X011118Y002882D01*
X011189Y002812D01*
X011503Y002812D01*
X011503Y002470D01*
X011332Y002300D01*
X010992Y002300D01*
X010922Y002230D01*
X010922Y000870D01*
X010992Y000800D01*
X011485Y000800D01*
X011555Y000870D01*
X011555Y002042D01*
X011743Y002230D01*
X011843Y002330D01*
X011843Y002812D01*
X012154Y002812D01*
X012212Y002870D01*
X013268Y001814D01*
X013261Y001814D01*
X013220Y001803D01*
X013183Y001782D01*
X013154Y001753D01*
X013133Y001716D01*
X013122Y001675D01*
X013122Y001360D01*
X013123Y001360D01*
X013123Y001240D01*
X013122Y001240D01*
X013122Y000925D01*
X013133Y000884D01*
X013154Y000847D01*
X013183Y000818D01*
X013220Y000797D01*
X013261Y000786D01*
X013537Y000786D01*
X013537Y001240D01*
X013657Y001240D01*
X013657Y001360D01*
X014072Y001360D01*
X014072Y001630D01*
X014177Y001630D01*
X014264Y001543D01*
X014264Y000896D01*
X014334Y000826D01*
X015064Y000826D01*
X015134Y000896D01*
X015134Y001521D01*
X015243Y001630D01*
X015718Y001630D01*
X015818Y001730D01*
X016068Y001980D01*
X016068Y002070D01*
X016078Y002070D01*
X016148Y002140D01*
X016148Y003040D01*
X016078Y003110D01*
X016068Y003110D01*
X016068Y003131D01*
X016101Y003164D01*
X016138Y003252D01*
X016138Y003348D01*
X016101Y003436D01*
X016034Y003503D01*
X015946Y003540D01*
X015850Y003540D01*
X015762Y003503D01*
X015694Y003436D01*
X015658Y003348D01*
X015658Y003252D01*
X015694Y003164D01*
X015728Y003131D01*
X015728Y003110D01*
X015718Y003110D01*
X015648Y003040D01*
X015648Y002140D01*
X015648Y003040D01*
X015578Y003110D01*
X015218Y003110D01*
X015148Y003040D01*
X015148Y002140D01*
X015148Y003040D01*
X015078Y003110D01*
X015073Y003110D01*
X015593Y003630D01*
X016202Y003630D01*
X016228Y003605D01*
X016228Y002005D01*
X016662Y001571D01*
X016662Y000857D01*
X016732Y000786D01*
X017461Y000786D01*
X017532Y000857D01*
X017532Y001743D01*
X017461Y001814D01*
X016900Y001814D01*
X016568Y002145D01*
X016568Y003745D01*
X016513Y003800D01*
X016568Y003855D01*
X016568Y005505D01*
X016889Y005826D01*
X017461Y005826D01*
X017532Y005896D01*
X017532Y006704D01*
X017461Y006774D01*
X016732Y006774D01*
X016662Y006704D01*
X016662Y006079D01*
X016327Y005745D01*
X016228Y005645D01*
X016346Y005764D02*
X011358Y005764D01*
X011038Y005764D02*
X007831Y005764D01*
X007843Y005646D02*
X007775Y005646D01*
X008063Y005646D02*
X008123Y005646D01*
X008343Y005646D02*
X011038Y005646D01*
X011038Y005527D02*
X008493Y005527D01*
X008063Y005172D02*
X006308Y005172D01*
X006308Y005053D02*
X007011Y005053D01*
X007034Y005062D02*
X006895Y005005D01*
X006789Y004899D01*
X006732Y004761D01*
X006732Y004611D01*
X006789Y004473D01*
X006895Y004367D01*
X007034Y004309D01*
X007183Y004309D01*
X007322Y004367D01*
X007428Y004473D01*
X007485Y004611D01*
X007485Y004761D01*
X007428Y004899D01*
X007322Y005005D01*
X007183Y005062D01*
X007034Y005062D01*
X007206Y005053D02*
X007576Y005053D01*
X007622Y004935D02*
X007392Y004935D01*
X007462Y004816D02*
X007705Y004816D01*
X007868Y004698D02*
X007485Y004698D01*
X007472Y004579D02*
X007735Y004579D01*
X007652Y004461D02*
X007416Y004461D01*
X007262Y004342D02*
X007603Y004342D01*
X007603Y004224D02*
X006308Y004224D01*
X006308Y004105D02*
X007620Y004105D01*
X007669Y003987D02*
X006308Y003987D01*
X006308Y003868D02*
X007775Y003868D01*
X007793Y003750D02*
X006308Y003750D01*
X006308Y003631D02*
X007676Y003631D01*
X007627Y003513D02*
X006308Y003513D01*
X006308Y003394D02*
X007603Y003394D01*
X007603Y003276D02*
X007220Y003276D01*
X007183Y003291D02*
X007034Y003291D01*
X006895Y003233D01*
X006789Y003127D01*
X006732Y002989D01*
X006732Y002839D01*
X006789Y002701D01*
X006895Y002595D01*
X007034Y002538D01*
X007183Y002538D01*
X007322Y002595D01*
X007428Y002701D01*
X007485Y002839D01*
X007485Y002989D01*
X007428Y003127D01*
X007322Y003233D01*
X007183Y003291D01*
X006997Y003276D02*
X006308Y003276D01*
X006308Y003157D02*
X006819Y003157D01*
X006752Y003039D02*
X006308Y003039D01*
X006308Y002920D02*
X006732Y002920D01*
X006748Y002802D02*
X006308Y002802D01*
X006308Y002683D02*
X006807Y002683D01*
X006969Y002565D02*
X006308Y002565D01*
X006308Y002446D02*
X007603Y002446D01*
X007621Y002565D02*
X007248Y002565D01*
X007410Y002683D02*
X007670Y002683D01*
X007779Y002802D02*
X007469Y002802D01*
X007485Y002920D02*
X007866Y002920D01*
X007718Y003039D02*
X007465Y003039D01*
X007398Y003157D02*
X007645Y003157D01*
X008320Y002920D02*
X009071Y002920D01*
X009071Y003039D02*
X008468Y003039D01*
X008541Y003157D02*
X009071Y003157D01*
X009129Y003276D02*
X008583Y003276D01*
X008583Y003394D02*
X009036Y003394D01*
X009031Y003513D02*
X008558Y003513D01*
X008594Y003631D02*
X009031Y003631D01*
X009031Y003550D02*
X009624Y003550D01*
X009031Y003550D01*
X009624Y003550D02*
X009624Y003550D01*
X010217Y003550D01*
X009624Y003550D01*
X009624Y003550D01*
X010217Y003513D02*
X011118Y003513D01*
X011118Y003631D02*
X010217Y003631D01*
X010195Y003750D02*
X011150Y003750D01*
X011133Y003868D02*
X010163Y003868D01*
X010177Y003987D02*
X011118Y003987D01*
X011118Y004105D02*
X010177Y004105D01*
X010172Y004224D02*
X011124Y004224D01*
X011159Y004342D02*
X010137Y004342D01*
X010177Y004461D02*
X011118Y004461D01*
X011118Y004579D02*
X010177Y004579D01*
X010177Y004698D02*
X011118Y004698D01*
X011511Y004816D02*
X008480Y004816D01*
X008564Y004935D02*
X011511Y004935D01*
X011831Y004935D02*
X014148Y004935D01*
X014148Y004816D02*
X011831Y004816D01*
X012225Y004698D02*
X014148Y004698D01*
X014148Y004579D02*
X013593Y004579D01*
X013593Y004461D02*
X014094Y004461D01*
X014558Y004461D02*
X014594Y004461D01*
X014648Y004579D02*
X014648Y004579D01*
X014648Y004698D02*
X014648Y004698D01*
X015148Y004698D02*
X015148Y004698D01*
X015148Y004579D02*
X015148Y004579D01*
X015058Y004461D02*
X015719Y004461D01*
X015658Y004342D02*
X015041Y004342D01*
X015001Y004224D02*
X015670Y004224D01*
X015753Y004105D02*
X014917Y004105D01*
X014686Y003987D02*
X016219Y003987D01*
X016228Y004105D02*
X016042Y004105D01*
X016126Y004224D02*
X016228Y004224D01*
X016228Y004342D02*
X016138Y004342D01*
X016077Y004461D02*
X016228Y004461D01*
X016228Y004579D02*
X016148Y004579D01*
X016148Y004698D02*
X016228Y004698D01*
X016228Y004816D02*
X016148Y004816D01*
X016148Y004935D02*
X016228Y004935D01*
X016228Y005053D02*
X016148Y005053D01*
X016148Y005172D02*
X016228Y005172D01*
X016228Y005290D02*
X016148Y005290D01*
X016148Y005409D02*
X016228Y005409D01*
X016228Y005527D02*
X016081Y005527D01*
X015715Y005527D02*
X015581Y005527D01*
X015648Y005409D02*
X015648Y005409D01*
X015215Y005527D02*
X015081Y005527D01*
X015148Y005409D02*
X015148Y005409D01*
X014715Y005527D02*
X014581Y005527D01*
X014648Y005409D02*
X014648Y005409D01*
X014648Y005290D02*
X014648Y005290D01*
X014648Y005172D02*
X014648Y005172D01*
X015148Y005172D02*
X015148Y005172D01*
X015148Y005290D02*
X015148Y005290D01*
X015648Y005290D02*
X015648Y005290D01*
X015648Y005172D02*
X015648Y005172D01*
X015148Y005053D02*
X015148Y005053D01*
X014648Y005053D02*
X014648Y005053D01*
X014648Y004935D02*
X014648Y004935D01*
X014648Y004816D02*
X014648Y004816D01*
X015148Y004816D02*
X015148Y004816D01*
X015148Y004935D02*
X015148Y004935D01*
X015648Y004830D02*
X015648Y004830D01*
X015648Y004560D01*
X015648Y004830D01*
X015648Y004816D02*
X015648Y004816D01*
X015648Y004698D02*
X015648Y004698D01*
X015648Y004579D02*
X015648Y004579D01*
X016568Y004579D02*
X019174Y004579D01*
X019174Y004698D02*
X016568Y004698D01*
X016568Y004816D02*
X019898Y004816D01*
X019869Y004786D02*
X019244Y004786D01*
X019174Y004716D01*
X019174Y004166D01*
X018977Y003970D01*
X018623Y003970D01*
X018593Y004000D01*
X018013Y004000D01*
X017943Y003930D01*
X017943Y003670D01*
X018013Y003600D01*
X018593Y003600D01*
X018623Y003630D01*
X018912Y003630D01*
X018752Y003470D01*
X018623Y003470D01*
X018593Y003500D01*
X018013Y003500D01*
X017943Y003430D01*
X017943Y003170D01*
X018013Y003100D01*
X018593Y003100D01*
X018623Y003130D01*
X018893Y003130D01*
X019174Y003410D01*
X019174Y003066D01*
X019077Y002970D01*
X018942Y002970D01*
X018909Y003003D01*
X018821Y003040D01*
X018725Y003040D01*
X018637Y003003D01*
X018569Y002936D01*
X018533Y002848D01*
X018533Y002752D01*
X018569Y002664D01*
X018637Y002597D01*
X018725Y002560D01*
X018821Y002560D01*
X018909Y002597D01*
X018942Y002630D01*
X019218Y002630D01*
X019318Y002730D01*
X019402Y002814D01*
X019894Y002814D01*
X020077Y002630D01*
X020402Y002630D01*
X020522Y002510D01*
X020522Y001782D01*
X020592Y001711D01*
X022070Y001711D01*
X022140Y001782D01*
X022140Y002055D01*
X023672Y002055D01*
X023672Y001782D01*
X023742Y001711D01*
X026203Y001711D01*
X026274Y001782D01*
X026274Y002669D01*
X026203Y002739D01*
X024810Y002739D01*
X024741Y002807D01*
X024574Y002877D01*
X024393Y002877D01*
X024226Y002807D01*
X024157Y002739D01*
X023742Y002739D01*
X023672Y002669D01*
X023672Y002395D01*
X022140Y002395D01*
X022140Y002669D01*
X022070Y002739D01*
X020774Y002739D01*
X020643Y002870D01*
X020543Y002970D01*
X020218Y002970D01*
X020122Y003066D01*
X020122Y003613D01*
X020106Y003630D01*
X020522Y003630D01*
X020522Y003357D01*
X020592Y003286D01*
X022070Y003286D01*
X022140Y003357D01*
X022140Y003630D01*
X023672Y003630D01*
X023672Y003357D01*
X023742Y003286D01*
X026203Y003286D01*
X026274Y003357D01*
X026274Y004243D01*
X026203Y004314D01*
X023742Y004314D01*
X023672Y004243D01*
X023672Y003970D01*
X022140Y003970D01*
X022140Y004243D01*
X022070Y004314D01*
X020592Y004314D01*
X020522Y004243D01*
X020522Y003970D01*
X020106Y003970D01*
X020122Y003987D01*
X020122Y004559D01*
X020193Y004630D01*
X020543Y004630D01*
X020643Y004730D01*
X020774Y004861D01*
X022070Y004861D01*
X022140Y004931D01*
X022140Y005205D01*
X023672Y005205D01*
X023672Y004931D01*
X023742Y004861D01*
X024157Y004861D01*
X024226Y004793D01*
X024393Y004723D01*
X024574Y004723D01*
X024741Y004793D01*
X024810Y004861D01*
X026203Y004861D01*
X026274Y004931D01*
X026274Y005818D01*
X026203Y005889D01*
X023742Y005889D01*
X023672Y005818D01*
X023672Y005545D01*
X022140Y005545D01*
X022140Y005818D01*
X022070Y005889D01*
X020592Y005889D01*
X020522Y005818D01*
X020522Y005090D01*
X020402Y004970D01*
X020052Y004970D01*
X019869Y004786D01*
X020017Y004935D02*
X016568Y004935D01*
X016568Y005053D02*
X020485Y005053D01*
X020522Y005172D02*
X016568Y005172D01*
X016568Y005290D02*
X020522Y005290D01*
X020522Y005409D02*
X016568Y005409D01*
X016590Y005527D02*
X020522Y005527D01*
X020522Y005646D02*
X016709Y005646D01*
X016827Y005764D02*
X020522Y005764D01*
X020586Y005883D02*
X018662Y005883D01*
X018663Y005884D02*
X018674Y005925D01*
X018674Y006240D01*
X018673Y006240D01*
X018673Y006360D01*
X018674Y006360D01*
X018674Y006675D01*
X018663Y006716D01*
X018642Y006753D01*
X018612Y006782D01*
X018576Y006803D01*
X018535Y006814D01*
X018259Y006814D01*
X018259Y006360D01*
X018139Y006360D01*
X018139Y006240D01*
X017724Y006240D01*
X017724Y005925D01*
X017735Y005884D01*
X017756Y005847D01*
X017786Y005818D01*
X017822Y005797D01*
X017863Y005786D01*
X018139Y005786D01*
X018139Y006240D01*
X018259Y006240D01*
X018259Y005786D01*
X018535Y005786D01*
X018576Y005797D01*
X018612Y005818D01*
X018642Y005847D01*
X018663Y005884D01*
X018674Y006001D02*
X026738Y006001D01*
X026738Y005883D02*
X026209Y005883D01*
X026274Y005764D02*
X026738Y005764D01*
X026738Y005646D02*
X026274Y005646D01*
X026274Y005527D02*
X026738Y005527D01*
X026738Y005409D02*
X026274Y005409D01*
X026274Y005290D02*
X026738Y005290D01*
X026738Y005172D02*
X026274Y005172D01*
X026274Y005053D02*
X026738Y005053D01*
X026738Y004935D02*
X026274Y004935D01*
X026738Y004816D02*
X024765Y004816D01*
X024202Y004816D02*
X020729Y004816D01*
X020611Y004698D02*
X026738Y004698D01*
X026738Y004579D02*
X020142Y004579D01*
X020122Y004461D02*
X026738Y004461D01*
X026738Y004342D02*
X020122Y004342D01*
X020122Y004224D02*
X020522Y004224D01*
X020522Y004105D02*
X020122Y004105D01*
X020122Y003987D02*
X020522Y003987D01*
X019174Y004224D02*
X018663Y004224D01*
X018663Y004170D02*
X018663Y004430D01*
X018593Y004500D01*
X018013Y004500D01*
X017943Y004430D01*
X017943Y004170D01*
X018013Y004100D01*
X018593Y004100D01*
X018663Y004170D01*
X018598Y004105D02*
X019112Y004105D01*
X018994Y003987D02*
X018606Y003987D01*
X018000Y003987D02*
X017353Y003987D01*
X017361Y003978D02*
X017331Y004008D01*
X017295Y004029D01*
X017254Y004040D01*
X016993Y004040D01*
X016993Y003800D01*
X017393Y003800D01*
X017393Y003901D01*
X017382Y003942D01*
X017361Y003978D01*
X017283Y004100D02*
X017353Y004170D01*
X017353Y004430D01*
X017283Y004500D01*
X016703Y004500D01*
X016633Y004430D01*
X016633Y004170D01*
X016703Y004100D01*
X017283Y004100D01*
X017288Y004105D02*
X018008Y004105D01*
X017943Y004224D02*
X017353Y004224D01*
X017353Y004342D02*
X017943Y004342D01*
X017974Y004461D02*
X017322Y004461D01*
X016664Y004461D02*
X016568Y004461D01*
X016568Y004342D02*
X016633Y004342D01*
X016633Y004224D02*
X016568Y004224D01*
X016568Y004105D02*
X016698Y004105D01*
X016732Y004040D02*
X016691Y004029D01*
X016655Y004008D01*
X016625Y003978D01*
X016604Y003942D01*
X016593Y003901D01*
X016593Y003699D01*
X016604Y003658D01*
X016625Y003622D01*
X016655Y003592D01*
X016691Y003571D01*
X016732Y003560D01*
X016993Y003560D01*
X017254Y003560D01*
X017295Y003571D01*
X017331Y003592D01*
X017361Y003622D01*
X017382Y003658D01*
X017393Y003699D01*
X017393Y003800D01*
X016993Y003800D01*
X016993Y003800D01*
X016993Y003560D01*
X016993Y003800D01*
X016993Y003800D01*
X016993Y003800D01*
X016993Y004040D01*
X016732Y004040D01*
X016633Y003987D02*
X016568Y003987D01*
X016993Y003987D02*
X016993Y003987D01*
X016993Y003868D02*
X016993Y003868D01*
X016993Y003750D02*
X016993Y003750D01*
X016593Y003750D02*
X016564Y003750D01*
X016568Y003868D02*
X016593Y003868D01*
X016568Y003631D02*
X016620Y003631D01*
X016568Y003513D02*
X018795Y003513D01*
X019157Y003394D02*
X019174Y003394D01*
X019174Y003276D02*
X019039Y003276D01*
X018920Y003157D02*
X019174Y003157D01*
X019146Y003039D02*
X018824Y003039D01*
X018722Y003039D02*
X017168Y003039D01*
X017168Y003100D02*
X017283Y003100D01*
X017353Y003170D01*
X017353Y003430D01*
X017283Y003500D01*
X016703Y003500D01*
X016633Y003430D01*
X016633Y003170D01*
X016703Y003100D01*
X016828Y003100D01*
X016828Y002530D01*
X017764Y001593D01*
X017764Y000857D01*
X017834Y000786D01*
X018564Y000786D01*
X018634Y000857D01*
X018634Y001743D01*
X018564Y001814D01*
X018025Y001814D01*
X017168Y002670D01*
X017168Y003100D01*
X017340Y003157D02*
X017956Y003157D01*
X017943Y003276D02*
X017353Y003276D01*
X017353Y003394D02*
X017943Y003394D01*
X017982Y003631D02*
X017366Y003631D01*
X017393Y003750D02*
X017943Y003750D01*
X017943Y003868D02*
X017393Y003868D01*
X016993Y003631D02*
X016993Y003631D01*
X016633Y003394D02*
X016568Y003394D01*
X016568Y003276D02*
X016633Y003276D01*
X016646Y003157D02*
X016568Y003157D01*
X016568Y003039D02*
X016828Y003039D01*
X016828Y002920D02*
X016568Y002920D01*
X016568Y002802D02*
X016828Y002802D01*
X016828Y002683D02*
X016568Y002683D01*
X016568Y002565D02*
X016828Y002565D01*
X016911Y002446D02*
X016568Y002446D01*
X016568Y002328D02*
X017030Y002328D01*
X017148Y002209D02*
X016568Y002209D01*
X016623Y002091D02*
X017267Y002091D01*
X017385Y001972D02*
X016741Y001972D01*
X016860Y001854D02*
X017504Y001854D01*
X017532Y001735D02*
X017622Y001735D01*
X017532Y001617D02*
X017741Y001617D01*
X017764Y001498D02*
X017532Y001498D01*
X017532Y001380D02*
X017764Y001380D01*
X017764Y001261D02*
X017532Y001261D01*
X017532Y001143D02*
X017764Y001143D01*
X017764Y001024D02*
X017532Y001024D01*
X017532Y000906D02*
X017764Y000906D01*
X017834Y000787D02*
X017462Y000787D01*
X016731Y000787D02*
X013938Y000787D01*
X013933Y000786D02*
X013973Y000797D01*
X014010Y000818D01*
X014040Y000847D01*
X014061Y000884D01*
X014072Y000925D01*
X014072Y001240D01*
X013657Y001240D01*
X013657Y000786D01*
X013933Y000786D01*
X014067Y000906D02*
X014264Y000906D01*
X014264Y001024D02*
X014072Y001024D01*
X014072Y001143D02*
X014264Y001143D01*
X014264Y001261D02*
X013657Y001261D01*
X013657Y001143D02*
X013537Y001143D01*
X013537Y001024D02*
X013657Y001024D01*
X013657Y000906D02*
X013537Y000906D01*
X013537Y000787D02*
X013657Y000787D01*
X013256Y000787D02*
X007354Y000787D01*
X007298Y000763D02*
X007574Y000878D01*
X007786Y001090D01*
X007901Y001367D01*
X007901Y001666D01*
X007786Y001943D01*
X007574Y002155D01*
X007298Y002270D01*
X006998Y002270D01*
X006721Y002155D01*
X006509Y001943D01*
X006395Y001666D01*
X006395Y001367D01*
X006509Y001090D01*
X006721Y000878D01*
X006998Y000763D01*
X007298Y000763D01*
X006941Y000787D02*
X006308Y000787D01*
X006308Y000906D02*
X006694Y000906D01*
X006575Y001024D02*
X006308Y001024D01*
X006308Y001143D02*
X006488Y001143D01*
X006439Y001261D02*
X006308Y001261D01*
X006308Y001380D02*
X006395Y001380D01*
X006395Y001498D02*
X006308Y001498D01*
X006308Y001617D02*
X006395Y001617D01*
X006423Y001735D02*
X006308Y001735D01*
X006308Y001854D02*
X006472Y001854D01*
X006538Y001972D02*
X006308Y001972D01*
X006308Y002091D02*
X006657Y002091D01*
X006852Y002209D02*
X006308Y002209D01*
X006308Y002328D02*
X007603Y002328D01*
X007651Y002209D02*
X007444Y002209D01*
X007639Y002091D02*
X007731Y002091D01*
X007757Y001972D02*
X007899Y001972D01*
X007823Y001854D02*
X008421Y001854D01*
X008302Y001972D02*
X008287Y001972D01*
X008665Y002091D02*
X009740Y002091D01*
X009740Y002209D02*
X008546Y002209D01*
X008583Y002328D02*
X011360Y002328D01*
X010922Y002209D02*
X010374Y002209D01*
X010374Y002091D02*
X010922Y002091D01*
X010922Y001972D02*
X010374Y001972D01*
X010374Y001854D02*
X010922Y001854D01*
X010922Y001735D02*
X010374Y001735D01*
X010374Y001617D02*
X010922Y001617D01*
X010922Y001498D02*
X010374Y001498D01*
X010374Y001380D02*
X010922Y001380D01*
X010922Y001261D02*
X010374Y001261D01*
X010374Y001143D02*
X010922Y001143D01*
X010922Y001024D02*
X010374Y001024D01*
X010374Y000906D02*
X010922Y000906D01*
X011555Y000906D02*
X013127Y000906D01*
X013122Y001024D02*
X011555Y001024D01*
X011555Y001143D02*
X013122Y001143D01*
X013123Y001261D02*
X011555Y001261D01*
X011555Y001380D02*
X013122Y001380D01*
X013122Y001498D02*
X011555Y001498D01*
X011555Y001617D02*
X013122Y001617D01*
X013144Y001735D02*
X011555Y001735D01*
X011555Y001854D02*
X013229Y001854D01*
X013110Y001972D02*
X011555Y001972D01*
X011604Y002091D02*
X012992Y002091D01*
X013473Y002091D02*
X014141Y002091D01*
X014140Y002092D02*
X014170Y002062D01*
X014206Y002041D01*
X014247Y002030D01*
X014393Y002030D01*
X014393Y002585D01*
X014108Y002585D01*
X014108Y002169D01*
X014119Y002128D01*
X014140Y002092D01*
X014393Y002091D02*
X014403Y002091D01*
X014655Y002091D02*
X014698Y002091D01*
X015098Y002091D02*
X015198Y002091D01*
X015598Y002091D02*
X015698Y002091D01*
X016098Y002091D02*
X016228Y002091D01*
X016228Y002209D02*
X016148Y002209D01*
X016148Y002328D02*
X016228Y002328D01*
X016228Y002446D02*
X016148Y002446D01*
X016148Y002565D02*
X016228Y002565D01*
X016228Y002683D02*
X016148Y002683D01*
X016148Y002802D02*
X016228Y002802D01*
X016228Y002920D02*
X016148Y002920D01*
X016148Y003039D02*
X016228Y003039D01*
X016228Y003157D02*
X016094Y003157D01*
X015701Y003157D02*
X015120Y003157D01*
X014728Y003157D02*
X013856Y003157D01*
X013975Y003276D02*
X014758Y003276D01*
X014876Y003394D02*
X014093Y003394D01*
X014212Y003513D02*
X014995Y003513D01*
X015113Y003631D02*
X014330Y003631D01*
X013878Y003631D02*
X013562Y003631D01*
X013593Y003513D02*
X013759Y003513D01*
X013996Y003750D02*
X012193Y003750D01*
X012210Y003868D02*
X014115Y003868D01*
X014449Y003750D02*
X015232Y003750D01*
X015350Y003868D02*
X014567Y003868D01*
X014233Y003987D02*
X013579Y003987D01*
X013593Y004105D02*
X014128Y004105D01*
X012717Y003987D02*
X012436Y003987D01*
X012554Y004105D02*
X012703Y004105D01*
X012220Y004224D02*
X012219Y004224D01*
X012184Y004342D02*
X012339Y004342D01*
X012225Y004461D02*
X012703Y004461D01*
X012703Y004579D02*
X012225Y004579D01*
X011831Y005053D02*
X014148Y005053D01*
X014148Y005172D02*
X011803Y005172D01*
X011684Y005290D02*
X014148Y005290D01*
X014444Y005909D02*
X014524Y005883D01*
X014606Y005870D01*
X014608Y005870D01*
X014608Y006360D01*
X014688Y006360D01*
X014688Y005870D01*
X014690Y005870D01*
X014772Y005883D01*
X014851Y005909D01*
X014926Y005947D01*
X014993Y005996D01*
X015052Y006055D01*
X015101Y006122D01*
X015139Y006197D01*
X015165Y006276D01*
X015166Y006283D01*
X015232Y006122D01*
X015370Y005985D01*
X015550Y005910D01*
X015745Y005910D01*
X015925Y005985D01*
X016063Y006122D01*
X016138Y006303D01*
X016138Y006497D01*
X016063Y006678D01*
X015925Y006815D01*
X015745Y006890D01*
X015550Y006890D01*
X015370Y006815D01*
X015232Y006678D01*
X015166Y006517D01*
X015165Y006524D01*
X015139Y006603D01*
X015101Y006678D01*
X015052Y006745D01*
X014993Y006804D01*
X014926Y006853D01*
X014851Y006891D01*
X014772Y006917D01*
X014690Y006930D01*
X014688Y006930D01*
X014688Y006440D01*
X014608Y006440D01*
X014608Y006930D01*
X014606Y006930D01*
X014524Y006917D01*
X014444Y006891D01*
X014370Y006853D01*
X014303Y006804D01*
X014244Y006745D01*
X014195Y006678D01*
X014157Y006603D01*
X014131Y006524D01*
X014130Y006517D01*
X014063Y006678D01*
X013925Y006815D01*
X013745Y006890D01*
X013550Y006890D01*
X013370Y006815D01*
X013232Y006678D01*
X013158Y006497D01*
X013158Y006303D01*
X013232Y006122D01*
X013370Y005985D01*
X013550Y005910D01*
X013745Y005910D01*
X013925Y005985D01*
X014063Y006122D01*
X014130Y006283D01*
X014131Y006276D01*
X014157Y006197D01*
X014195Y006122D01*
X014244Y006055D01*
X014303Y005996D01*
X014370Y005947D01*
X014444Y005909D01*
X014527Y005883D02*
X011621Y005883D01*
X011634Y006001D02*
X012354Y006001D01*
X012370Y005985D02*
X012550Y005910D01*
X012745Y005910D01*
X012925Y005985D01*
X013063Y006122D01*
X013138Y006303D01*
X013138Y006497D01*
X013063Y006678D01*
X012925Y006815D01*
X012745Y006890D01*
X012550Y006890D01*
X012370Y006815D01*
X012232Y006678D01*
X012158Y006497D01*
X012158Y006303D01*
X012232Y006122D01*
X012370Y005985D01*
X012235Y006120D02*
X011634Y006120D01*
X011634Y006238D02*
X012185Y006238D01*
X012158Y006357D02*
X011634Y006357D01*
X011634Y006475D02*
X012158Y006475D01*
X012198Y006594D02*
X011634Y006594D01*
X011626Y006712D02*
X012267Y006712D01*
X012407Y006831D02*
X007312Y006831D01*
X007584Y006712D02*
X009632Y006712D01*
X009633Y006716D02*
X009622Y006675D01*
X009622Y006360D01*
X009623Y006360D01*
X009623Y006240D01*
X009622Y006240D01*
X009622Y005925D01*
X009633Y005884D01*
X009654Y005847D01*
X009683Y005818D01*
X009720Y005797D01*
X009761Y005786D01*
X010037Y005786D01*
X010037Y006240D01*
X010157Y006240D01*
X010157Y006360D01*
X010572Y006360D01*
X010572Y006675D01*
X010561Y006716D01*
X010540Y006753D01*
X010510Y006782D01*
X010473Y006803D01*
X010433Y006814D01*
X010157Y006814D01*
X010157Y006360D01*
X010037Y006360D01*
X010037Y006814D01*
X009761Y006814D01*
X009720Y006803D01*
X009683Y006782D01*
X009654Y006753D01*
X009633Y006716D01*
X009622Y006594D02*
X007703Y006594D01*
X007801Y006475D02*
X009622Y006475D01*
X009623Y006357D02*
X007850Y006357D01*
X007899Y006238D02*
X009622Y006238D01*
X009622Y006120D02*
X007901Y006120D01*
X007901Y006001D02*
X009622Y006001D01*
X009633Y005883D02*
X007880Y005883D01*
X010037Y005883D02*
X010157Y005883D01*
X010157Y005786D02*
X010433Y005786D01*
X010473Y005797D01*
X010510Y005818D01*
X010540Y005847D01*
X010561Y005884D01*
X010572Y005925D01*
X010572Y006240D01*
X010157Y006240D01*
X010157Y005786D01*
X010157Y006001D02*
X010037Y006001D01*
X010037Y006120D02*
X010157Y006120D01*
X010157Y006238D02*
X010037Y006238D01*
X010157Y006357D02*
X010764Y006357D01*
X010764Y006238D02*
X010572Y006238D01*
X010572Y006120D02*
X010764Y006120D01*
X010764Y006001D02*
X010572Y006001D01*
X010560Y005883D02*
X010778Y005883D01*
X010764Y006475D02*
X010572Y006475D01*
X010572Y006594D02*
X010764Y006594D01*
X010772Y006712D02*
X010562Y006712D01*
X010157Y006712D02*
X010037Y006712D01*
X010037Y006594D02*
X010157Y006594D01*
X010157Y006475D02*
X010037Y006475D01*
X012889Y006831D02*
X013407Y006831D01*
X013267Y006712D02*
X013029Y006712D01*
X013098Y006594D02*
X013198Y006594D01*
X013158Y006475D02*
X013138Y006475D01*
X013138Y006357D02*
X013158Y006357D01*
X013185Y006238D02*
X013111Y006238D01*
X013060Y006120D02*
X013235Y006120D01*
X013354Y006001D02*
X012942Y006001D01*
X013942Y006001D02*
X014297Y006001D01*
X014608Y006001D02*
X014688Y006001D01*
X014688Y005883D02*
X014608Y005883D01*
X014769Y005883D02*
X016465Y005883D01*
X016583Y006001D02*
X015942Y006001D01*
X016060Y006120D02*
X016662Y006120D01*
X016662Y006238D02*
X016111Y006238D01*
X016138Y006357D02*
X016662Y006357D01*
X016662Y006475D02*
X016138Y006475D01*
X016098Y006594D02*
X016662Y006594D01*
X016670Y006712D02*
X016029Y006712D01*
X015889Y006831D02*
X026738Y006831D01*
X026738Y006712D02*
X018664Y006712D01*
X018259Y006712D02*
X018139Y006712D01*
X018139Y006814D02*
X017863Y006814D01*
X017822Y006803D01*
X017786Y006782D01*
X017756Y006753D01*
X017735Y006716D01*
X017724Y006675D01*
X017724Y006360D01*
X018139Y006360D01*
X018139Y006814D01*
X017734Y006712D02*
X017524Y006712D01*
X017532Y006594D02*
X017724Y006594D01*
X017724Y006475D02*
X017532Y006475D01*
X017532Y006357D02*
X018139Y006357D01*
X018139Y006238D02*
X018259Y006238D01*
X018259Y006120D02*
X018139Y006120D01*
X018139Y006001D02*
X018259Y006001D01*
X018259Y005883D02*
X018139Y005883D01*
X017736Y005883D02*
X017518Y005883D01*
X017532Y006001D02*
X017724Y006001D01*
X017724Y006120D02*
X017532Y006120D01*
X017532Y006238D02*
X017724Y006238D01*
X018139Y006475D02*
X018259Y006475D01*
X018259Y006594D02*
X018139Y006594D01*
X018674Y006594D02*
X026738Y006594D01*
X026738Y006475D02*
X018674Y006475D01*
X018673Y006357D02*
X026738Y006357D01*
X026738Y006238D02*
X018674Y006238D01*
X018674Y006120D02*
X026738Y006120D01*
X023736Y005883D02*
X022076Y005883D01*
X022140Y005764D02*
X023672Y005764D01*
X023672Y005646D02*
X022140Y005646D01*
X022140Y005172D02*
X023672Y005172D01*
X023672Y005053D02*
X022140Y005053D01*
X022140Y004935D02*
X023672Y004935D01*
X023672Y004224D02*
X022140Y004224D01*
X022140Y004105D02*
X023672Y004105D01*
X023672Y003987D02*
X022140Y003987D01*
X022140Y003513D02*
X023672Y003513D01*
X023672Y003394D02*
X022140Y003394D01*
X020593Y002920D02*
X026738Y002920D01*
X026738Y003039D02*
X020150Y003039D01*
X020122Y003157D02*
X026738Y003157D01*
X026738Y003276D02*
X020122Y003276D01*
X020122Y003394D02*
X020522Y003394D01*
X020522Y003513D02*
X020122Y003513D01*
X018563Y002920D02*
X017168Y002920D01*
X017168Y002802D02*
X018533Y002802D01*
X018562Y002683D02*
X017168Y002683D01*
X017274Y002565D02*
X018714Y002565D01*
X018831Y002565D02*
X020468Y002565D01*
X020522Y002446D02*
X017392Y002446D01*
X017511Y002328D02*
X020522Y002328D01*
X020522Y002209D02*
X017629Y002209D01*
X017748Y002091D02*
X020522Y002091D01*
X020522Y001972D02*
X017866Y001972D01*
X017985Y001854D02*
X020522Y001854D01*
X020569Y001735D02*
X018634Y001735D01*
X018634Y001617D02*
X026738Y001617D01*
X026738Y001735D02*
X026227Y001735D01*
X026274Y001854D02*
X026738Y001854D01*
X026738Y001972D02*
X026274Y001972D01*
X026274Y002091D02*
X026738Y002091D01*
X026738Y002209D02*
X026274Y002209D01*
X026274Y002328D02*
X026738Y002328D01*
X026738Y002446D02*
X026274Y002446D01*
X026274Y002565D02*
X026738Y002565D01*
X026738Y002683D02*
X026259Y002683D01*
X026738Y002802D02*
X024747Y002802D01*
X024220Y002802D02*
X020712Y002802D01*
X020024Y002683D02*
X019271Y002683D01*
X019390Y002802D02*
X019906Y002802D01*
X022126Y002683D02*
X023686Y002683D01*
X023672Y002565D02*
X022140Y002565D01*
X022140Y002446D02*
X023672Y002446D01*
X023672Y001972D02*
X022140Y001972D01*
X022140Y001854D02*
X023672Y001854D01*
X023718Y001735D02*
X022093Y001735D01*
X018634Y001498D02*
X026738Y001498D01*
X026738Y001380D02*
X018634Y001380D01*
X018634Y001261D02*
X026738Y001261D01*
X026738Y001143D02*
X018634Y001143D01*
X018634Y001024D02*
X026738Y001024D01*
X026738Y000906D02*
X018634Y000906D01*
X018564Y000787D02*
X026738Y000787D01*
X026738Y000669D02*
X006308Y000669D01*
X007602Y000906D02*
X009740Y000906D01*
X009740Y001024D02*
X007720Y001024D01*
X007808Y001143D02*
X009740Y001143D01*
X009740Y001261D02*
X007857Y001261D01*
X007901Y001380D02*
X009740Y001380D01*
X008776Y001498D02*
X007901Y001498D01*
X007901Y001617D02*
X008658Y001617D01*
X008539Y001735D02*
X007872Y001735D01*
X008783Y001972D02*
X009740Y001972D01*
X009740Y001854D02*
X008902Y001854D01*
X009020Y001735D02*
X009740Y001735D01*
X011722Y002209D02*
X012873Y002209D01*
X012755Y002328D02*
X011841Y002328D01*
X011843Y002446D02*
X012636Y002446D01*
X012518Y002565D02*
X011843Y002565D01*
X011503Y002565D02*
X008564Y002565D01*
X008583Y002446D02*
X011478Y002446D01*
X011503Y002683D02*
X008515Y002683D01*
X008406Y002802D02*
X011503Y002802D01*
X011843Y002802D02*
X012281Y002802D01*
X012399Y002683D02*
X011843Y002683D01*
X011118Y002920D02*
X010177Y002920D01*
X010177Y003039D02*
X011118Y003039D01*
X011118Y003157D02*
X010177Y003157D01*
X010120Y003276D02*
X011176Y003276D01*
X011118Y003394D02*
X010213Y003394D01*
X012167Y003276D02*
X012321Y003276D01*
X012406Y003157D02*
X012440Y003157D01*
X012525Y003039D02*
X012703Y003039D01*
X012643Y002920D02*
X014108Y002920D01*
X014115Y003039D02*
X013593Y003039D01*
X014108Y002802D02*
X012762Y002802D01*
X012880Y002683D02*
X014108Y002683D01*
X014393Y002683D02*
X014403Y002683D01*
X014393Y002802D02*
X014403Y002802D01*
X014393Y002920D02*
X014403Y002920D01*
X014393Y003039D02*
X014403Y003039D01*
X015148Y003039D02*
X015148Y003039D01*
X015148Y002920D02*
X015148Y002920D01*
X015148Y002802D02*
X015148Y002802D01*
X015148Y002683D02*
X015148Y002683D01*
X015148Y002565D02*
X015148Y002565D01*
X015148Y002446D02*
X015148Y002446D01*
X015148Y002328D02*
X015148Y002328D01*
X015148Y002209D02*
X015148Y002209D01*
X015648Y002209D02*
X015648Y002209D01*
X015648Y002328D02*
X015648Y002328D01*
X015648Y002446D02*
X015648Y002446D01*
X015648Y002565D02*
X015648Y002565D01*
X015648Y002683D02*
X015648Y002683D01*
X015648Y002802D02*
X015648Y002802D01*
X015648Y002920D02*
X015648Y002920D01*
X015648Y003039D02*
X015648Y003039D01*
X015658Y003276D02*
X015239Y003276D01*
X015357Y003394D02*
X015677Y003394D01*
X015784Y003513D02*
X015476Y003513D01*
X016012Y003513D02*
X016228Y003513D01*
X016228Y003394D02*
X016119Y003394D01*
X016138Y003276D02*
X016228Y003276D01*
X014403Y002565D02*
X014393Y002565D01*
X014393Y002446D02*
X014403Y002446D01*
X014108Y002446D02*
X013117Y002446D01*
X012999Y002565D02*
X014108Y002565D01*
X014108Y002328D02*
X013236Y002328D01*
X013354Y002209D02*
X014108Y002209D01*
X014393Y002209D02*
X014403Y002209D01*
X014393Y002328D02*
X014403Y002328D01*
X013591Y001972D02*
X015579Y001972D01*
X015942Y001854D02*
X016379Y001854D01*
X016260Y001972D02*
X016060Y001972D01*
X015823Y001735D02*
X016497Y001735D01*
X016616Y001617D02*
X015230Y001617D01*
X015134Y001498D02*
X016662Y001498D01*
X016662Y001380D02*
X015134Y001380D01*
X015134Y001261D02*
X016662Y001261D01*
X016662Y001143D02*
X015134Y001143D01*
X015134Y001024D02*
X016662Y001024D01*
X016662Y000906D02*
X015134Y000906D01*
X014264Y001380D02*
X014072Y001380D01*
X014072Y001498D02*
X014264Y001498D01*
X014191Y001617D02*
X014072Y001617D01*
X014435Y001854D02*
X014986Y001854D01*
X012703Y003513D02*
X012537Y003513D01*
X012418Y003631D02*
X012734Y003631D01*
X009111Y004342D02*
X009016Y004342D01*
X008682Y004461D02*
X008533Y004461D01*
X008450Y004579D02*
X008801Y004579D01*
X008919Y004698D02*
X008317Y004698D01*
X008609Y005053D02*
X011469Y005053D01*
X009077Y004224D02*
X008898Y004224D01*
X008779Y004105D02*
X009071Y004105D01*
X009033Y003987D02*
X008517Y003987D01*
X006955Y004342D02*
X006308Y004342D01*
X006308Y004461D02*
X006801Y004461D01*
X006745Y004579D02*
X006308Y004579D01*
X006308Y004698D02*
X006732Y004698D01*
X006755Y004816D02*
X006308Y004816D01*
X006308Y004935D02*
X006825Y004935D01*
X013889Y006831D02*
X014339Y006831D01*
X014219Y006712D02*
X014029Y006712D01*
X014098Y006594D02*
X014153Y006594D01*
X014608Y006594D02*
X014688Y006594D01*
X014688Y006475D02*
X014608Y006475D01*
X014608Y006357D02*
X014688Y006357D01*
X014688Y006238D02*
X014608Y006238D01*
X014143Y006238D02*
X014111Y006238D01*
X014060Y006120D02*
X014197Y006120D01*
X014608Y006120D02*
X014688Y006120D01*
X015099Y006120D02*
X015235Y006120D01*
X015185Y006238D02*
X015153Y006238D01*
X014998Y006001D02*
X015354Y006001D01*
X015198Y006594D02*
X015142Y006594D01*
X015076Y006712D02*
X015267Y006712D01*
X015407Y006831D02*
X014957Y006831D01*
X014688Y006831D02*
X014608Y006831D01*
X014608Y006712D02*
X014688Y006712D01*
X018632Y004461D02*
X019174Y004461D01*
X019174Y004342D02*
X018663Y004342D01*
X026274Y004224D02*
X026738Y004224D01*
X026738Y004105D02*
X026274Y004105D01*
X026274Y003987D02*
X026738Y003987D01*
X026738Y003868D02*
X026274Y003868D01*
X026274Y003750D02*
X026738Y003750D01*
X026738Y003631D02*
X026274Y003631D01*
X026274Y003513D02*
X026738Y003513D01*
X026738Y003394D02*
X026274Y003394D01*
D25*
X018773Y002800D03*
X015898Y003300D03*
X015898Y004300D03*
X014773Y004300D03*
X014273Y004300D03*
X006523Y006800D03*
X026523Y006800D03*
X026523Y000800D03*
X006523Y000800D03*
D26*
X017023Y001175D02*
X017097Y001300D01*
X024484Y002422D02*
X024523Y002300D01*
X024898Y002300D01*
X024973Y002225D01*
X021331Y003800D02*
X021273Y003800D01*
X024484Y005178D02*
X024523Y005300D01*
X024898Y005300D01*
X024973Y005375D01*
X009624Y004050D02*
X009323Y004050D01*
D27*
X011671Y003050D02*
X011673Y003050D01*
X011673Y002400D01*
X011248Y001975D01*
X011238Y001550D01*
X010057Y001550D02*
X008965Y001550D01*
X008093Y002422D01*
X011673Y003050D02*
X012273Y003050D01*
X013523Y001800D01*
X014248Y001800D01*
X014648Y001400D01*
X014648Y001351D01*
X014699Y001300D01*
X014773Y001374D01*
X014773Y001400D01*
X015173Y001800D01*
X015648Y001800D01*
X015898Y002050D01*
X015898Y002590D01*
X015898Y003300D01*
X015523Y003800D02*
X014898Y003175D01*
X014898Y002590D01*
X016398Y002075D02*
X017023Y001450D01*
X017023Y001175D01*
X018198Y001175D02*
X018199Y001300D01*
X018198Y001400D02*
X018198Y001175D01*
X018198Y001400D02*
X016998Y002600D01*
X016998Y003300D01*
X016993Y003300D01*
X016398Y003675D02*
X016273Y003800D01*
X015523Y003800D01*
X016273Y003800D02*
X016398Y003925D01*
X016398Y005575D01*
X017023Y006200D01*
X017097Y006300D01*
X020473Y004800D02*
X021098Y005425D01*
X021273Y005425D01*
X021331Y005375D01*
X021398Y005375D01*
X024898Y005375D01*
X024973Y005375D01*
X020473Y004800D02*
X020123Y004800D01*
X019748Y004425D01*
X019648Y004425D01*
X019648Y004351D01*
X019548Y004300D01*
X019048Y003800D01*
X018303Y003800D01*
X018823Y003300D02*
X019323Y003800D01*
X021273Y003800D01*
X021331Y003800D02*
X024484Y003800D01*
X024523Y003800D01*
X024973Y003800D01*
X021098Y002175D02*
X020473Y002800D01*
X020148Y002800D01*
X019773Y003175D01*
X019648Y003175D01*
X019648Y003249D01*
X019648Y003175D02*
X019523Y003175D01*
X019148Y002800D01*
X018773Y002800D01*
X018823Y003300D02*
X018303Y003300D01*
X016398Y003675D02*
X016398Y002075D01*
X021098Y002175D02*
X021273Y002175D01*
X021331Y002225D01*
X021398Y002225D01*
X024898Y002225D01*
X024973Y002225D01*
X015898Y004300D02*
X015898Y005000D01*
X015898Y005010D01*
X015898Y005000D02*
X015398Y005000D01*
X015398Y005010D01*
M02*
