G75*
%MOIN*%
%OFA0B0*%
%FSLAX24Y24*%
%IPPOS*%
%LPD*%
%AMOC8*
5,1,8,0,0,1.08239X$1,22.5*
%
%ADD10C,0.0000*%
%ADD11C,0.0060*%
%ADD12C,0.0080*%
%ADD13C,0.0050*%
%ADD14C,0.0100*%
D10*
X006148Y000500D02*
X006148Y007100D01*
X026898Y007100D01*
X026898Y000500D01*
X006148Y000500D01*
X006892Y002914D02*
X006894Y002943D01*
X006900Y002971D01*
X006909Y002999D01*
X006922Y003025D01*
X006939Y003048D01*
X006958Y003070D01*
X006980Y003089D01*
X007005Y003104D01*
X007031Y003117D01*
X007059Y003125D01*
X007087Y003130D01*
X007116Y003131D01*
X007145Y003128D01*
X007173Y003121D01*
X007200Y003111D01*
X007226Y003097D01*
X007249Y003080D01*
X007270Y003060D01*
X007288Y003037D01*
X007303Y003012D01*
X007314Y002985D01*
X007322Y002957D01*
X007326Y002928D01*
X007326Y002900D01*
X007322Y002871D01*
X007314Y002843D01*
X007303Y002816D01*
X007288Y002791D01*
X007270Y002768D01*
X007249Y002748D01*
X007226Y002731D01*
X007200Y002717D01*
X007173Y002707D01*
X007145Y002700D01*
X007116Y002697D01*
X007087Y002698D01*
X007059Y002703D01*
X007031Y002711D01*
X007005Y002724D01*
X006980Y002739D01*
X006958Y002758D01*
X006939Y002780D01*
X006922Y002803D01*
X006909Y002829D01*
X006900Y002857D01*
X006894Y002885D01*
X006892Y002914D01*
X006892Y004686D02*
X006894Y004715D01*
X006900Y004743D01*
X006909Y004771D01*
X006922Y004797D01*
X006939Y004820D01*
X006958Y004842D01*
X006980Y004861D01*
X007005Y004876D01*
X007031Y004889D01*
X007059Y004897D01*
X007087Y004902D01*
X007116Y004903D01*
X007145Y004900D01*
X007173Y004893D01*
X007200Y004883D01*
X007226Y004869D01*
X007249Y004852D01*
X007270Y004832D01*
X007288Y004809D01*
X007303Y004784D01*
X007314Y004757D01*
X007322Y004729D01*
X007326Y004700D01*
X007326Y004672D01*
X007322Y004643D01*
X007314Y004615D01*
X007303Y004588D01*
X007288Y004563D01*
X007270Y004540D01*
X007249Y004520D01*
X007226Y004503D01*
X007200Y004489D01*
X007173Y004479D01*
X007145Y004472D01*
X007116Y004469D01*
X007087Y004470D01*
X007059Y004475D01*
X007031Y004483D01*
X007005Y004496D01*
X006980Y004511D01*
X006958Y004530D01*
X006939Y004552D01*
X006922Y004575D01*
X006909Y004601D01*
X006900Y004629D01*
X006894Y004657D01*
X006892Y004686D01*
D11*
X026303Y004937D02*
X026359Y004880D01*
X026586Y004880D01*
X026643Y004937D01*
X026643Y005050D01*
X026586Y005107D01*
X026473Y005107D01*
X026473Y004993D01*
X026359Y005107D02*
X026303Y005050D01*
X026303Y004937D01*
X026303Y005248D02*
X026643Y005475D01*
X026303Y005475D01*
X026303Y005617D02*
X026303Y005787D01*
X026359Y005843D01*
X026586Y005843D01*
X026643Y005787D01*
X026643Y005617D01*
X026303Y005617D01*
X026303Y005248D02*
X026643Y005248D01*
X026643Y004100D02*
X026303Y004100D01*
X026529Y003987D02*
X026643Y004100D01*
X026529Y003987D02*
X026643Y003873D01*
X026303Y003873D01*
X026643Y003732D02*
X026643Y003505D01*
X026643Y003618D02*
X026303Y003618D01*
X026416Y003505D01*
X026529Y002718D02*
X026303Y002718D01*
X026529Y002718D02*
X026643Y002605D01*
X026529Y002492D01*
X026303Y002492D01*
X026303Y002350D02*
X026303Y002123D01*
X026473Y002123D01*
X026416Y002237D01*
X026416Y002293D01*
X026473Y002350D01*
X026586Y002350D01*
X026643Y002293D01*
X026643Y002180D01*
X026586Y002123D01*
X026473Y001982D02*
X026473Y001755D01*
X026586Y001868D02*
X026359Y001868D01*
D12*
X025960Y001753D02*
X025305Y001753D01*
X023440Y001753D01*
X023440Y005847D01*
X025305Y005847D01*
X025960Y005847D01*
X025957Y005867D02*
X025957Y006064D01*
X025956Y006081D01*
X025951Y006098D01*
X025944Y006113D01*
X025934Y006127D01*
X025922Y006139D01*
X025908Y006149D01*
X025893Y006156D01*
X025876Y006161D01*
X025859Y006162D01*
X021331Y006162D01*
X021314Y006161D01*
X021297Y006156D01*
X021282Y006149D01*
X021268Y006139D01*
X021256Y006127D01*
X021246Y006113D01*
X021239Y006098D01*
X021234Y006081D01*
X021233Y006064D01*
X021233Y005867D01*
X021233Y004883D02*
X021233Y004292D01*
X018358Y004100D02*
X018358Y004000D01*
X018358Y003600D02*
X018358Y003500D01*
X017808Y003375D02*
X017810Y003387D01*
X017816Y003399D01*
X017824Y003407D01*
X017836Y003413D01*
X017848Y003415D01*
X017860Y003413D01*
X017872Y003407D01*
X017880Y003399D01*
X017886Y003387D01*
X017888Y003375D01*
X017886Y003363D01*
X017880Y003351D01*
X017872Y003343D01*
X017860Y003337D01*
X017848Y003335D01*
X017836Y003337D01*
X017824Y003343D01*
X017816Y003351D01*
X017810Y003363D01*
X017808Y003375D01*
X016938Y003500D02*
X016938Y003600D01*
X016938Y004000D02*
X016938Y004100D01*
X016148Y004420D02*
X016148Y003180D01*
X016148Y003170D02*
X014148Y003170D01*
X014148Y003180D02*
X014148Y004420D01*
X014150Y004443D01*
X014155Y004466D01*
X014164Y004488D01*
X014177Y004508D01*
X014192Y004526D01*
X014210Y004541D01*
X014230Y004554D01*
X014252Y004563D01*
X014275Y004568D01*
X014298Y004570D01*
X013573Y004600D02*
X013571Y004617D01*
X013567Y004634D01*
X013560Y004650D01*
X013550Y004664D01*
X013537Y004677D01*
X013523Y004687D01*
X013507Y004694D01*
X013490Y004698D01*
X013473Y004700D01*
X012823Y004700D01*
X012806Y004698D01*
X012789Y004694D01*
X012773Y004687D01*
X012759Y004677D01*
X012746Y004664D01*
X012736Y004650D01*
X012729Y004634D01*
X012725Y004617D01*
X012723Y004600D01*
X011396Y004745D02*
X010147Y004745D01*
X010147Y002855D01*
X009900Y002855D01*
X010147Y002855D02*
X011396Y002855D01*
X012823Y002900D02*
X013473Y002900D01*
X013490Y002902D01*
X013507Y002906D01*
X013523Y002913D01*
X013537Y002923D01*
X013550Y002936D01*
X013560Y002950D01*
X013567Y002966D01*
X013571Y002983D01*
X013573Y003000D01*
X014148Y003180D02*
X014150Y003157D01*
X014155Y003134D01*
X014164Y003112D01*
X014177Y003092D01*
X014192Y003074D01*
X014210Y003059D01*
X014230Y003046D01*
X014252Y003037D01*
X014275Y003032D01*
X014298Y003030D01*
X012823Y002900D02*
X012806Y002902D01*
X012789Y002906D01*
X012773Y002913D01*
X012759Y002923D01*
X012746Y002936D01*
X012736Y002950D01*
X012729Y002966D01*
X012725Y002983D01*
X012723Y003000D01*
X014408Y003475D02*
X014410Y003487D01*
X014416Y003499D01*
X014424Y003507D01*
X014436Y003513D01*
X014448Y003515D01*
X014460Y003513D01*
X014472Y003507D01*
X014480Y003499D01*
X014486Y003487D01*
X014488Y003475D01*
X014486Y003463D01*
X014480Y003451D01*
X014472Y003443D01*
X014460Y003437D01*
X014448Y003435D01*
X014436Y003437D01*
X014424Y003443D01*
X014416Y003451D01*
X014410Y003463D01*
X014408Y003475D01*
X013573Y003600D02*
X013571Y003617D01*
X013567Y003634D01*
X013560Y003650D01*
X013550Y003664D01*
X013537Y003677D01*
X013523Y003687D01*
X013507Y003694D01*
X013490Y003698D01*
X013473Y003700D01*
X012823Y003700D01*
X012806Y003698D01*
X012789Y003694D01*
X012773Y003687D01*
X012759Y003677D01*
X012746Y003664D01*
X012736Y003650D01*
X012729Y003634D01*
X012725Y003617D01*
X012723Y003600D01*
X012823Y003900D02*
X013473Y003900D01*
X013490Y003902D01*
X013507Y003906D01*
X013523Y003913D01*
X013537Y003923D01*
X013550Y003936D01*
X013560Y003950D01*
X013567Y003966D01*
X013571Y003983D01*
X013573Y004000D01*
X012823Y003900D02*
X012806Y003902D01*
X012789Y003906D01*
X012773Y003913D01*
X012759Y003923D01*
X012746Y003936D01*
X012736Y003950D01*
X012729Y003966D01*
X012725Y003983D01*
X012723Y004000D01*
X010383Y004475D02*
X010385Y004487D01*
X010391Y004499D01*
X010399Y004507D01*
X010411Y004513D01*
X010423Y004515D01*
X010435Y004513D01*
X010447Y004507D01*
X010455Y004499D01*
X010461Y004487D01*
X010463Y004475D01*
X010461Y004463D01*
X010455Y004451D01*
X010447Y004443D01*
X010435Y004437D01*
X010423Y004435D01*
X010411Y004437D01*
X010399Y004443D01*
X010391Y004451D01*
X010385Y004463D01*
X010383Y004475D01*
X010147Y004745D02*
X009900Y004745D01*
X007542Y005375D02*
X007542Y002225D01*
X009773Y002250D02*
X011523Y002250D01*
X011523Y000850D01*
X009773Y000850D01*
X009773Y002250D01*
X006413Y001440D02*
X006288Y001440D01*
X015998Y003030D02*
X016021Y003032D01*
X016044Y003037D01*
X016066Y003046D01*
X016086Y003059D01*
X016104Y003074D01*
X016119Y003092D01*
X016132Y003112D01*
X016141Y003134D01*
X016146Y003157D01*
X016148Y003180D01*
X016938Y003070D02*
X018358Y003070D01*
X021233Y003308D02*
X021233Y002717D01*
X021233Y001733D02*
X021233Y001536D01*
X021234Y001519D01*
X021239Y001502D01*
X021246Y001487D01*
X021256Y001473D01*
X021268Y001461D01*
X021282Y001451D01*
X021297Y001444D01*
X021314Y001439D01*
X021331Y001438D01*
X025859Y001438D01*
X025876Y001439D01*
X025893Y001444D01*
X025908Y001451D01*
X025922Y001461D01*
X025934Y001473D01*
X025944Y001487D01*
X025951Y001502D01*
X025956Y001519D01*
X025957Y001536D01*
X025957Y001733D01*
X025957Y002717D02*
X025957Y002914D01*
X025859Y003013D02*
X025860Y003030D01*
X025865Y003047D01*
X025872Y003062D01*
X025882Y003076D01*
X025894Y003088D01*
X025908Y003098D01*
X025923Y003105D01*
X025940Y003110D01*
X025957Y003111D01*
X025957Y003308D01*
X025298Y003325D02*
X025298Y002700D01*
X025859Y003013D02*
X025860Y002996D01*
X025865Y002979D01*
X025872Y002964D01*
X025882Y002950D01*
X025894Y002938D01*
X025908Y002928D01*
X025923Y002921D01*
X025940Y002916D01*
X025957Y002915D01*
X025957Y004292D02*
X025957Y004489D01*
X025940Y004490D01*
X025923Y004495D01*
X025908Y004502D01*
X025894Y004512D01*
X025882Y004524D01*
X025872Y004538D01*
X025865Y004553D01*
X025860Y004570D01*
X025859Y004587D01*
X025860Y004604D01*
X025865Y004621D01*
X025872Y004636D01*
X025882Y004650D01*
X025894Y004662D01*
X025908Y004672D01*
X025923Y004679D01*
X025940Y004684D01*
X025957Y004685D01*
X025957Y004686D02*
X025957Y004883D01*
X025298Y004900D02*
X025298Y004275D01*
X018358Y004530D02*
X016938Y004530D01*
X016148Y004420D02*
X016146Y004443D01*
X016141Y004466D01*
X016132Y004488D01*
X016119Y004508D01*
X016104Y004526D01*
X016086Y004541D01*
X016066Y004554D01*
X016044Y004563D01*
X016021Y004568D01*
X015998Y004570D01*
X006413Y006160D02*
X006288Y006160D01*
D13*
X009353Y006120D02*
X009398Y006075D01*
X009578Y006075D01*
X009623Y006120D01*
X009623Y006210D01*
X009578Y006255D01*
X009623Y006370D02*
X009623Y006550D01*
X009623Y006460D02*
X009353Y006460D01*
X009443Y006370D01*
X009398Y006255D02*
X009353Y006210D01*
X009353Y006120D01*
X010298Y005220D02*
X010388Y005220D01*
X010343Y005220D02*
X010343Y004950D01*
X010298Y004950D02*
X010388Y004950D01*
X010494Y004995D02*
X010539Y004950D01*
X010629Y004950D01*
X010674Y004995D01*
X010789Y004950D02*
X010969Y004950D01*
X010879Y004950D02*
X010879Y005220D01*
X010789Y005130D01*
X010674Y005175D02*
X010629Y005220D01*
X010539Y005220D01*
X010494Y005175D01*
X010494Y004995D01*
X012303Y004550D02*
X012573Y004370D01*
X012573Y004550D02*
X012303Y004370D01*
X012348Y004255D02*
X012438Y004255D01*
X012483Y004210D01*
X012483Y004075D01*
X012573Y004075D02*
X012303Y004075D01*
X012303Y004210D01*
X012348Y004255D01*
X012483Y004165D02*
X012573Y004255D01*
X012573Y003550D02*
X012303Y003370D01*
X012303Y003550D02*
X012573Y003370D01*
X012303Y003255D02*
X012303Y003075D01*
X012303Y003165D02*
X012573Y003165D01*
X009573Y001800D02*
X009573Y001620D01*
X009573Y001710D02*
X009303Y001710D01*
X009393Y001620D01*
X009303Y001505D02*
X009303Y001325D01*
X009573Y001325D01*
X009438Y001325D02*
X009438Y001415D01*
X012853Y001415D02*
X012898Y001370D01*
X012853Y001415D02*
X012853Y001505D01*
X012898Y001550D01*
X012943Y001550D01*
X013123Y001370D01*
X013123Y001550D01*
X013078Y001255D02*
X013123Y001210D01*
X013123Y001120D01*
X013078Y001075D01*
X012898Y001075D01*
X012853Y001120D01*
X012853Y001210D01*
X012898Y001255D01*
X016353Y001210D02*
X016353Y001075D01*
X016623Y001075D01*
X016533Y001075D02*
X016533Y001210D01*
X016488Y001255D01*
X016398Y001255D01*
X016353Y001210D01*
X016533Y001165D02*
X016623Y001255D01*
X016623Y001370D02*
X016623Y001550D01*
X016623Y001460D02*
X016353Y001460D01*
X016443Y001370D01*
X006670Y003457D02*
X006625Y003412D01*
X006399Y003412D01*
X006670Y003457D02*
X006670Y003547D01*
X006625Y003592D01*
X006399Y003592D01*
X006445Y003707D02*
X006490Y003707D01*
X006535Y003752D01*
X006535Y003842D01*
X006580Y003887D01*
X006625Y003887D01*
X006670Y003842D01*
X006670Y003752D01*
X006625Y003707D01*
X006445Y003707D02*
X006399Y003752D01*
X006399Y003842D01*
X006445Y003887D01*
X006399Y004001D02*
X006399Y004136D01*
X006445Y004181D01*
X006490Y004181D01*
X006535Y004136D01*
X006535Y004001D01*
X006670Y004001D02*
X006670Y004136D01*
X006625Y004181D01*
X006580Y004181D01*
X006535Y004136D01*
X006670Y004001D02*
X006399Y004001D01*
X014823Y005575D02*
X014913Y005575D01*
X014868Y005575D02*
X014868Y005845D01*
X014823Y005845D02*
X014913Y005845D01*
X015019Y005800D02*
X015019Y005620D01*
X015064Y005575D01*
X015154Y005575D01*
X015199Y005620D01*
X015314Y005575D02*
X015494Y005755D01*
X015494Y005800D01*
X015449Y005845D01*
X015359Y005845D01*
X015314Y005800D01*
X015199Y005800D02*
X015154Y005845D01*
X015064Y005845D01*
X015019Y005800D01*
X015314Y005575D02*
X015494Y005575D01*
X016353Y006120D02*
X016398Y006075D01*
X016578Y006075D01*
X016623Y006120D01*
X016623Y006210D01*
X016578Y006255D01*
X016578Y006370D02*
X016623Y006415D01*
X016623Y006505D01*
X016578Y006550D01*
X016533Y006550D01*
X016488Y006505D01*
X016488Y006460D01*
X016488Y006505D02*
X016443Y006550D01*
X016398Y006550D01*
X016353Y006505D01*
X016353Y006415D01*
X016398Y006370D01*
X016398Y006255D02*
X016353Y006210D01*
X016353Y006120D01*
X019423Y005050D02*
X019468Y005095D01*
X019558Y005095D01*
X019603Y005050D01*
X019718Y004960D02*
X019898Y004960D01*
X019853Y005095D02*
X019718Y004960D01*
X019603Y004870D02*
X019558Y004825D01*
X019468Y004825D01*
X019423Y004870D01*
X019423Y005050D01*
X019853Y005095D02*
X019853Y004825D01*
X018042Y004725D02*
X017862Y004725D01*
X017952Y004725D02*
X017952Y004995D01*
X017862Y004905D01*
X017748Y004950D02*
X017703Y004995D01*
X017568Y004995D01*
X017568Y004725D01*
X017703Y004725D01*
X017748Y004770D01*
X017748Y004950D01*
X017453Y004950D02*
X017273Y004770D01*
X017273Y004725D01*
X017453Y004725D01*
X017453Y004950D02*
X017453Y004995D01*
X017273Y004995D01*
X023173Y006420D02*
X023218Y006375D01*
X023308Y006375D01*
X023353Y006420D01*
X023468Y006375D02*
X023468Y006645D01*
X023648Y006375D01*
X023648Y006645D01*
X023762Y006555D02*
X023852Y006645D01*
X023852Y006375D01*
X023762Y006375D02*
X023942Y006375D01*
X023353Y006600D02*
X023308Y006645D01*
X023218Y006645D01*
X023173Y006600D01*
X023173Y006420D01*
D14*
X014337Y003475D02*
X014339Y003495D01*
X014344Y003515D01*
X014354Y003533D01*
X014366Y003550D01*
X014381Y003564D01*
X014399Y003574D01*
X014418Y003582D01*
X014438Y003586D01*
X014458Y003586D01*
X014478Y003582D01*
X014497Y003574D01*
X014515Y003564D01*
X014530Y003550D01*
X014542Y003533D01*
X014552Y003515D01*
X014557Y003495D01*
X014559Y003475D01*
X014557Y003455D01*
X014552Y003435D01*
X014542Y003417D01*
X014530Y003400D01*
X014515Y003386D01*
X014497Y003376D01*
X014478Y003368D01*
X014458Y003364D01*
X014438Y003364D01*
X014418Y003368D01*
X014399Y003376D01*
X014381Y003386D01*
X014366Y003400D01*
X014354Y003417D01*
X014344Y003435D01*
X014339Y003455D01*
X014337Y003475D01*
X017737Y003375D02*
X017739Y003395D01*
X017744Y003415D01*
X017754Y003433D01*
X017766Y003450D01*
X017781Y003464D01*
X017799Y003474D01*
X017818Y003482D01*
X017838Y003486D01*
X017858Y003486D01*
X017878Y003482D01*
X017897Y003474D01*
X017915Y003464D01*
X017930Y003450D01*
X017942Y003433D01*
X017952Y003415D01*
X017957Y003395D01*
X017959Y003375D01*
X017957Y003355D01*
X017952Y003335D01*
X017942Y003317D01*
X017930Y003300D01*
X017915Y003286D01*
X017897Y003276D01*
X017878Y003268D01*
X017858Y003264D01*
X017838Y003264D01*
X017818Y003268D01*
X017799Y003276D01*
X017781Y003286D01*
X017766Y003300D01*
X017754Y003317D01*
X017744Y003335D01*
X017739Y003355D01*
X017737Y003375D01*
X010323Y004450D02*
X010325Y004470D01*
X010331Y004488D01*
X010340Y004506D01*
X010352Y004521D01*
X010367Y004533D01*
X010385Y004542D01*
X010403Y004548D01*
X010423Y004550D01*
X010443Y004548D01*
X010461Y004542D01*
X010479Y004533D01*
X010494Y004521D01*
X010506Y004506D01*
X010515Y004488D01*
X010521Y004470D01*
X010523Y004450D01*
X010521Y004430D01*
X010515Y004412D01*
X010506Y004394D01*
X010494Y004379D01*
X010479Y004367D01*
X010461Y004358D01*
X010443Y004352D01*
X010423Y004350D01*
X010403Y004352D01*
X010385Y004358D01*
X010367Y004367D01*
X010352Y004379D01*
X010340Y004394D01*
X010331Y004412D01*
X010325Y004430D01*
X010323Y004450D01*
M02*
